<?xml version="1.0" encoding="utf-8"?>
<!-- Generated by Glyphs Company app at https://glyphs.co -->
<!-- Copyright Glyphs Company. Please follow included license terms. -->
<!-- Do NOT redistribute -->
<svg class="stroked" xmlns="http://www.w3.org/2000/svg" viewBox="0 0 44 44">
    <ellipse transform="rotate(45 27.376 15.624)" cx="27.4" cy="15.6" rx="12.9" ry="15.9" class="line" fill="none" stroke="#000" stroke-width="2" stroke-miterlimit="10"/>
    <path class="line thin" fill="none" stroke="#000" stroke-miterlimit="10" d="M29.8 1.2l12.1 12.1M25.1 2.1l15.8 15.8M21.3 4L39 21.6M18.3 6.5l18.2 18.2M15.8 9.6l17.6 17.6M13.8 13.3l15.8 15.8M13 18.1l12 12M30.6 1.2L12.9 18.9M35.2 2.2L13.9 23.5M38.6 4.4L16.1 26.9M41 7.7L19.5 29.2M41.9 12.4L24.2 30.1"/>
    <path class="line" fill="none" stroke="#000" stroke-width="2" stroke-linejoin="round" stroke-miterlimit="10" d="M7.016 33.136l2.828 2.83-7 7-2.828-2.83z"/>
    <path d="M16.1 26.9c-1.7-1.7-2.7-3.9-3.1-6.2 0 0 .1 9.2-4.7 14 4.7-4.7 14-4.7 14-4.7-2.3-.4-4.5-1.4-6.2-3.1z" class="line" fill="none" stroke="#000" stroke-width="2" stroke-miterlimit="10"/>
    <circle cx="37" cy="37" r="4" class="line" fill="none" stroke="#000" stroke-width="2" stroke-miterlimit="10"/>
</svg>