<?xml version="1.0" encoding="utf-8"?>
<!-- Generated by Glyphs Company app at https://glyphs.co -->
<!-- Copyright Glyphs Company. Please follow included license terms. -->
<!-- Do NOT redistribute -->
<svg class="stroked" xmlns="http://www.w3.org/2000/svg" viewBox="0 0 44 44">
    <path d="M33 31H1v3c0 .6.4 1 1 1h31" class="line" fill="none" stroke="#000" stroke-width="2" stroke-miterlimit="10"/>
    <g class="line" fill="none" stroke="#000" stroke-width="2" stroke-miterlimit="10">
        <path d="M42 37h-8c-.6 0-1-.4-1-1V18c0-.6.4-1 1-1h8c.6 0 1 .4 1 1v18c0 .6-.4 1-1 1zM33 21h10M33 33h10"/>
    </g>
    <path d="M39 17v-7c0-.6-.4-1-1-1H6c-.6 0-1 .4-1 1v21h28" class="line" fill="none" stroke="#000" stroke-width="2" stroke-miterlimit="10"/>
</svg>