<?xml version="1.0" encoding="utf-8"?>
<!-- Generated by Glyphs Company app at https://glyphs.co -->
<!-- Copyright Glyphs Company. Please follow included license terms. -->
<!-- Do NOT redistribute -->
<svg class="stroked" xmlns="http://www.w3.org/2000/svg" viewBox="0 0 44 44">
    <path class="line" fill="none" stroke="#000" stroke-width="2" stroke-miterlimit="10" d="M10 7h24M10 37h24M10 28.3s1.7-7.3 6.6-8.3c5-1.1 5.3 4.3 10.3 3.3 5.4-1.1 7.1-8.8 7.1-8.8"/>
    <path d="M33.9 6.3c-.4-1.2-2.2-3.9-2.2-3.9.3-.1.6-.3.6-.7 0-.4-.3-.7-.7-.7H12.4c-.4 0-.7.3-.7.7 0 .4.3.6.6.7 0 0-1.7 2.7-2.2 3.9-.1.4-.1 2.1-.1 2.1v31.9c0 .3.1.5.2.8l.3.7c.3.7 1 1.2 1.8 1.2h19.4c.8 0 1.5-.5 1.8-1.2l.3-.7c.1-.3.2-.5.2-.8V8.4s0-1.7-.1-2.1z" class="line" fill="none" stroke="#000" stroke-width="2" stroke-miterlimit="10"/>
</svg>