<?xml version="1.0" encoding="utf-8"?>
<!-- Generated by Glyphs Company app at https://glyphs.co -->
<!-- Copyright Glyphs Company. Please follow included license terms. -->
<!-- Do NOT redistribute -->
<svg class="stroked" xmlns="http://www.w3.org/2000/svg" viewBox="0 0 44 44">
    <path d="M21.2 9.4s0-4.9 5.7-7.9" class="line" fill="none" stroke="#000" stroke-width="2" stroke-linecap="round" stroke-linejoin="round" stroke-miterlimit="10"/>
    <path d="M18.5 1.7c2.5 1.4 3.4 4.7 3.4 4.7s-3.4 1.1-5.9-.3-3.2-4.7-3.2-4.7 3.2-1.1 5.7.3z" class="line" fill="none" stroke="#000" stroke-width="2" stroke-linejoin="round" stroke-miterlimit="10"/>
    <path d="M28.7 16.6c0-4-3.2-7.2-7.2-7.2s-7.2 3.2-7.2 7.2c0 4.8-4.8 10-4.8 14.4 0 6.6 5.4 12 12 12s12-5.4 12-12c0-4.4-4.8-9.6-4.8-14.4z" class="line" fill="none" stroke="#000" stroke-width="2" stroke-miterlimit="10"/>
</svg>