<?xml version="1.0" encoding="utf-8"?>
<!-- Generated by Glyphs Company app at https://glyphs.co -->
<!-- Copyright Glyphs Company. Please follow included license terms. -->
<!-- Do NOT redistribute -->
<svg class="stroked" xmlns="http://www.w3.org/2000/svg" viewBox="0 0 32 44">
    <g class="line" fill="none" stroke="#000" stroke-width="2" stroke-miterlimit="10">
        <path d="M23 5h6c1.105 0 2 .895 2 2v34c0 1.105-.895 2-2 2H3c-1.105 0-2-.895-2-2V7c0-1.105.895-2 2-2h6"/>
        <path d="M20 3c0-1.105-.895-2-2-2h-4c-1.105 0-2 .895-2 2h-2c-.552 0-1 .448-1 1v2c0 .552.448 1 1 1h12c.552 0 1-.448 1-1V4c0-.552-.448-1-1-1h-2z"/>
    </g>
</svg>