<?xml version="1.0" encoding="utf-8"?>
<!-- Generated by Glyphs Company app at https://glyphs.co -->
<!-- Copyright Glyphs Company. Please follow included license terms. -->
<!-- Do NOT redistribute -->
<svg class="stroked" xmlns="http://www.w3.org/2000/svg" viewBox="0 0 44 44">
    <path class="line" fill="none" stroke="#000" stroke-width="2" stroke-miterlimit="10" d="M7 5h4v4H7zM39 5h4v4h-4z"/>
    <path class="line" fill="none" stroke="#000" stroke-miterlimit="10" d="M23.5 5.5h3v3h-3zM23.5 35.5h3v3h-3zM39.5 20.5h3v3h-3z"/>
    <path class="line" fill="none" stroke="#000" stroke-width="2" stroke-miterlimit="10" d="M39 35h4v4h-4zM11 37h12.5M26.5 37H39M11 7h12.5M26.5 7H39M41 8v12.5M41 23.5V36M9 8v7M9 25v11M7 35h4v4H7z"/>
    <path class="line" fill="none" stroke="#000" stroke-width="2" stroke-linejoin="round" stroke-miterlimit="10" d="M1 32.9V7l18 18H8.1z"/>
</svg>