<?xml version="1.0" encoding="utf-8"?>
<!-- Generated by Glyphs Company app at https://glyphs.co -->
<!-- Copyright Glyphs Company. Please follow included license terms. -->
<!-- Do NOT redistribute -->
<svg class="stroked" xmlns="http://www.w3.org/2000/svg" viewBox="0 0 44 44">
    <path class="line" fill="none" stroke="#000" stroke-width="2" stroke-miterlimit="10" d="M29.2 28H34V13H9v15h5.8"/>
    <path class="line" fill="none" stroke="#000" stroke-width="2" stroke-miterlimit="10" d="M29 32h14V4H1v28h14"/>
    <path class="line" fill="none" stroke="#000" stroke-width="2" stroke-linecap="round" stroke-miterlimit="10" d="M14.5 26h15"/>
    <path class="line" fill="none" stroke="#000" stroke-miterlimit="10" d="M27.5 41.2h-11l-2-15.2h15z"/>
    <g class="line" fill="none" stroke="#000" stroke-miterlimit="10">
        <path d="M14.7 27.2l.4-.5M15.8 26l-.7.7M17.3 28.8l-2.2 2.1M19.4 26.7l.7-.7M19.4 26.7l-2.1 2.1M15.6 34.7l1.7-1.7M21.5 28.8l-2.1 2.1M23.6 26.7l-2.1 2.1M19.4 30.9L17.3 33M23.6 26.7l.7-.7M17.3 37.3l2.1-2.1M23.6 30.9L21.5 33M27.9 26.7l-2.2 2.1M28.5 26l-.6.7M16.1 38.4l1.2-1.1M19.4 35.2l2.1-2.2M25.7 28.8l-2.1 2.1M29 29.8l-1.1 1.1M21.5 37.3l2.1-2.1M19.4 39.4l-1.8 1.8M27.9 30.9L25.7 33M23.6 35.2l2.1-2.2M19.4 39.4l2.1-2.1M28.4 34.7l-.5.5M23.6 39.4l2.1-2.1M23.6 39.4l-1.8 1.8M25.7 37.3l2.2-2.1M27.7 39.6l-1.6 1.6M29.2 28l-1.3-1.3M27.9 26.7l-.7-.7M22.9 26l.7.7M27.9 30.9l-2.2-2.1M27.9 30.9l.8.9M25.7 28.8l-2.1-2.1M28.2 35.5l-.3-.3M25.7 33l-2.1-2.1M27.9 35.2L25.7 33M18.7 26l.7.7M23.6 30.9l-2.1-2.1M19.4 26.7l2.1 2.1M19.4 30.9l2.1 2.1M25.7 37.3l-2.1-2.1M21.5 33l2.1 2.2M17.3 28.8l2.1 2.1M25.7 37.3l2 2M15.1 26.7l2.2 2.1M14.5 26l.6.7M19.4 35.2l2.1 2.1M17.3 33l-2.2-2.1M25.4 41.2l-1.8-1.8M17.3 33l2.1 2.2M21.5 37.3l2.1 2.1M17.3 37.3l2.1 2.1M17.3 37.3l-1.5-1.5M19.4 39.4l1.8 1.8M16.4 40.7l.5.5"/>
    </g>
</svg>