<?xml version="1.0" encoding="utf-8"?>
<!-- Generated by Glyphs Company app at https://glyphs.co -->
<!-- Copyright Glyphs Company. Please follow included license terms. -->
<!-- Do NOT redistribute -->
<svg class="stroked" xmlns="http://www.w3.org/2000/svg" viewBox="0 0 43.477 41.979">
    <path d="M40.476 40.98c1.21 0 2.144-1.068 1.982-2.267l-.005-.037c-.273-2.062-1.634-3.818-3.58-4.555-3.146-1.19-7.507-2.84-8.05-3.04-.4-.14-1.08-1.3-1.32-1.84-.24-.52-1.86-1.58-2.28-1.64l-.06-2.2 7.26-2.68s-1.58-2.94-2.06-4.58c-.48-1.64-.78-4.2-.78-4.44 0-.24-.98-6.12-1.52-7.26-.52-1.14-1.26-2.7-2.5-3.46-1.22-.76-3.06-1.84-5.7-1.98h-.24c-2.64.14-4.48 1.22-5.7 1.98-1.24.76-1.98 2.32-2.5 3.46-.54 1.14-1.52 7.02-1.52 7.26 0 .24-.28 2.9-.74 4.54-.48 1.64-2.1 4.48-2.1 4.48l7.26 2.68-.06 2.2c-.42.06-2.04 1.12-2.28 1.64-.24.54-.92 1.7-1.32 1.84-.53.197-4.715 1.704-7.843 2.83-2.07.744-3.523 2.596-3.8 4.777l-.005.038C.863 39.92 1.795 40.98 3 40.98h37.476z" class="line" fill="none" stroke="#000" stroke-width="2" stroke-linejoin="round" stroke-miterlimit="10"/>
</svg>