<?xml version="1.0" encoding="utf-8"?>
<!-- Generated by Glyphs Company app at https://glyphs.co -->
<!-- Copyright Glyphs Company. Please follow included license terms. -->
<!-- Do NOT redistribute -->
<svg class="stroked" xmlns="http://www.w3.org/2000/svg" viewBox="0 0 44 39.035">
    <g class="line" fill="none" stroke="#000" stroke-width="2" stroke-linejoin="round" stroke-miterlimit="10">
        <path d="M40.962 18.79c.01-.217.038-.43.038-.647C41 8.675 32.046 1 21 1S1 8.675 1 18.143c0 4.466 2.01 8.52 5.275 11.572-.612 2.002-1.97 5.11-4.83 7.05 0 0 6.747-.76 11.067-3.117 2.58 1.04 5.45 1.638 8.49 1.638.253 0 .5-.025.752-.033"/>
        <path d="M29 13c7.732 0 14 5.373 14 12 0 3.127-1.407 5.965-3.692 8.1.428 1.4 1.38 3.577 3.382 4.935 0 0-4.724-.533-7.748-2.182C33.136 36.58 31.128 37 29 37c-7.732 0-14-5.373-14-12s6.268-12 14-12z"/>
    </g>
</svg>