<?xml version="1.0" encoding="utf-8"?>
<!-- Generated by Glyphs Company app at https://glyphs.co -->
<!-- Copyright Glyphs Company. Please follow included license terms. -->
<!-- Do NOT redistribute -->
<svg class="stroked" xmlns="http://www.w3.org/2000/svg" viewBox="0 0 44 44">
    <path d="M33 18.4c-3.6 0-3.6-2-7.3-2s-3.6 2-7.3 2c-3.6 0-3.6-2-7.3-2" class="line" fill="none" stroke="#000" stroke-width="2" stroke-miterlimit="10"/>
    <path d="M32.1 31H11.9c-.5 0-.9-.4-.9-.9V12c0-6 4.9-11 11-11 6 0 11 4.9 11 11v18.1c0 .5-.4.9-.9.9zM23 43h-3c-.6 0-1-.4-1-1V31h5v11c0 .6-.4 1-1 1z" class="line" fill="none" stroke="#000" stroke-width="2" stroke-miterlimit="10"/>
</svg>