<?xml version="1.0" encoding="utf-8"?>
<!-- Generated by Glyphs Company app at https://glyphs.co -->
<!-- Copyright Glyphs Company. Please follow included license terms. -->
<!-- Do NOT redistribute -->
<svg class="stroked" xmlns="http://www.w3.org/2000/svg" viewBox="0 0 44 44">
    <path d="M34.2 1.2c-2.7-.8-5.7.9-5.7.9s1.6 3.2 4.3 4S38.5 5 38.5 5s-1.6-3-4.3-3.8zM10.6 27.3s-2-1.5-4.9-.6c-1.9.6-4.2 2.7-4.1 6.7.1 3.5 1.8 7.6 6 9.1 4.1 1.4 8.1-.1 9.8-2.5 1.7-2.5 2.4-5.3 2.2-7.5-.2-2.6-.9-4.7-2.9-5.7-1.5-.7-3.9-.9-6.1.5zM31.6 27.3s-2-1.5-4.9-.6c-1.9.6-4.2 2.7-4.1 6.7.1 3.5 1.8 7.6 6 9.1 4.1 1.4 8.1-.1 9.8-2.5 1.7-2.5 2.4-5.3 2.2-7.5-.2-2.6-.9-4.7-2.9-5.7-1.5-.7-3.9-.9-6.1.5z" class="line" fill="none" stroke="#000" stroke-width="2" stroke-linejoin="round" stroke-miterlimit="10"/>
    <path d="M10.6 27.3s2-25.2 17.9-25.2c0 0-7.7 12 3.1 25.2" class="line" fill="none" stroke="#000" stroke-width="2" stroke-linejoin="round" stroke-miterlimit="10"/>
</svg>