<?xml version="1.0" encoding="utf-8"?>
<!-- Generated by Glyphs Company app at https://glyphs.co -->
<!-- Copyright Glyphs Company. Please follow included license terms. -->
<!-- Do NOT redistribute -->
<svg class="stroked" xmlns="http://www.w3.org/2000/svg" viewBox="0 0 44 44">
    <g class="line" fill="none" stroke="#000" stroke-miterlimit="10">
        <ellipse cx="35.5" cy="29.4" rx="7.5" ry="7.4" stroke-width="1.867"/>
        <path d="M35.5 26v7M39 29.5h-7"/>
    </g>
    <path d="M40.4 23.8c.8-1 1.3-1.8 1.7-2.6 2.5-5.9-.2-12.8-6-15.3-5.2-2.3-11.2-.2-14.1 4.7-2.9-4.9-8.9-7-14.1-4.7-5.7 2.5-8.4 9.4-6 15.3 2.1 5 14.9 14.9 18.9 17.9.7.5 1.7.5 2.4 0 1.4-1 3.8-2.9 6.4-5" clip-rule="evenodd" class="line" fill="none" stroke="#000" stroke-width="2" stroke-miterlimit="10"/>
</svg>