<?xml version="1.0" encoding="utf-8"?>
<!-- Generated by Glyphs Company app at https://glyphs.co -->
<!-- Copyright Glyphs Company. Please follow included license terms. -->
<!-- Do NOT redistribute -->
<svg class="stroked" xmlns="http://www.w3.org/2000/svg" viewBox="0 0 44 44">
    <path d="M41 21H3c-.6 0-1-.4-1-1v-3C2 11.5 6.5 7 12 7h20c5.5 0 10 4.5 10 10v3c0 .6-.4 1-1 1zM39 35H5c-1.7 0-3-1.3-3-3v-2c0-.6.4-1 1-1h38c.6 0 1 .4 1 1v2c0 1.7-1.3 3-3 3zM1 25h42" class="line" fill="none" stroke="#000" stroke-width="2" stroke-linecap="round" stroke-miterlimit="10"/>
</svg>