<?xml version="1.0" encoding="utf-8"?>
<!-- Generated by Glyphs Company app at https://glyphs.co -->
<!-- Copyright Glyphs Company. Please follow included license terms. -->
<!-- Do NOT redistribute -->
<svg class="stroked" xmlns="http://www.w3.org/2000/svg" viewBox="0 0 44 44">
    <path d="M1 34V23C1 11.4 10.4 2 22 2s21 9.4 21 21v11" class="line" fill="none" stroke="#000" stroke-width="2" stroke-miterlimit="10"/>
    <path d="M2 20.4h1.3c1.8 0 3.3-1.2 3.7-3 1.5-6.2 7.7-10.8 15-10.8 7.4 0 13.5 4.6 15 10.8.4 1.7 1.9 3 3.7 3H42" class="line" fill="none" stroke="#000" stroke-miterlimit="10"/>
    <path d="M4.5 42C2.6 42 1 40.4 1 38.5v-9C1 27.6 2.6 26 4.5 26S8 27.6 8 29.5v9C8 40.4 6.4 42 4.5 42zM39.5 42c-1.9 0-3.5-1.6-3.5-3.5v-9c0-1.9 1.6-3.5 3.5-3.5s3.5 1.6 3.5 3.5v9c0 1.9-1.6 3.5-3.5 3.5z" class="line" fill="none" stroke="#000" stroke-width="2" stroke-miterlimit="10"/>
</svg>