<?xml version="1.0" encoding="utf-8"?>
<!-- Generated by Glyphs Company app at https://glyphs.co -->
<!-- Copyright Glyphs Company. Please follow included license terms. -->
<!-- Do NOT redistribute -->
<svg class="stroked" xmlns="http://www.w3.org/2000/svg" viewBox="0 0 44 38">
    <g class="line" fill="none" stroke="#000" stroke-width="2" stroke-miterlimit="10">
        <path d="M18 37H3c-1.1 0-2-.9-2-2V3c0-1.1.9-2 2-2h15c1.1 0 2 .9 2 2v32c0 1.1-.9 2-2 2zM41 17H26c-1.1 0-2-.9-2-2V5c0-1.1.9-2 2-2h15c1.1 0 2 .9 2 2v10c0 1.1-.9 2-2 2z"/>
        <circle cx="10.5" cy="10.5" r="5.5"/>
        <path d="M27 13h11M20 10h4"/>
    </g>
</svg>