<?xml version="1.0" encoding="utf-8"?>
<!-- Generated by Glyphs Company app at https://glyphs.co -->
<!-- Copyright Glyphs Company. Please follow included license terms. -->
<!-- Do NOT redistribute -->
<svg class="stroked" xmlns="http://www.w3.org/2000/svg" viewBox="0 0 44 44">
    <g class="line" fill="none" stroke="#000" stroke-miterlimit="10" stroke-width="2">
        <ellipse cx="32.5" cy="29.4" rx="7.5" ry="7.4" />
        <path d="M36 29.5h-7"/>
    </g>
    <path d="M28.3 23.2c.3-1.1.2-2.4.2-2.4 1.2.6 1.9-2.2 1.9-2.2 1.4-4-.7-3.8-.7-3.8.6-3 0-7.4 0-7.4-.9-8.1-14.9-5.6-12.8-3-5-1.4-3.3 8.2-3.3 8.2l.9 2.4c-1.7 1.1-.5 2.5-.5 4 .1 2.3 1.5 1.8 1.5 1.8.1 3.8 1.9 4.3 1.9 4.3.3 2.4 0 2.2 0 2.2H16c.1.6-.1 1.6-.1 1.6-1.9.9-2.4 1.4-4.3 2.2-2.1.9-5.3 2.3-7.6 3.4-1.8.8-3 2.6-3 4.6v1.7c0 1.3.9 2.2 2.1 2.2h37.8c1.2 0 2.1-1 2.1-2.3v-2c0-2-1.1-3.7-2.9-4.6-.4-.2-.9-.4-1.3-.6" class="line" fill="none" stroke="#000" stroke-width="2" stroke-linejoin="round" stroke-miterlimit="10"/>
</svg>