<?xml version="1.0" encoding="utf-8"?>
<!-- Generated by Glyphs Company app at https://glyphs.co -->
<!-- Copyright Glyphs Company. Please follow included license terms. -->
<!-- Do NOT redistribute -->
<svg class="stroked" xmlns="http://www.w3.org/2000/svg" viewBox="0 0 44 44">
    <path d="M39 5c0-2.2-7.6-4-17-4S5 2.8 5 5v25.9c0 2.2 7.6 4 17 4s17-1.8 17-4V5z" class="line" fill="none" stroke="#000" stroke-width="2" stroke-miterlimit="10"/>
    <path d="M39 5c0 2.2-7.6 4-17 4S5 7.3 5 5M39 14c0 2.2-7.6 4-17 4S5 16.2 5 14M39 22c0 2.2-7.6 4-17 4S5 24.3 5 22M22 35v4M15 41H4M40 41H29M15 39h14v4H15z" class="line" fill="none" stroke="#000" stroke-width="2" stroke-miterlimit="10"/>
</svg>