<?xml version="1.0" encoding="utf-8"?>
<!-- Generated by Glyphs Company app at https://glyphs.co -->
<!-- Copyright Glyphs Company. Please follow included license terms. -->
<!-- Do NOT redistribute -->
<svg class="stroked" xmlns="http://www.w3.org/2000/svg" viewBox="0 0 44 44">
    <path class="line" fill="none" stroke="#000" stroke-width="2" stroke-miterlimit="10" d="M30.3 6.338l7.07 7.07L9.088 41.694l-7.07-7.07zM23.2 13.4l7.1 7.1"/>
    <path class="line" fill="none" stroke="#000" stroke-linejoin="round" stroke-miterlimit="10" d="M39.6.6l.9 2.8 2.8.9-2.8.9-.9 2.8-.9-2.8-2.8-.9 2.8-.9zM21.2 1l1.1 3.6 3.6 1.2-3.6 1.1-1.1 3.7L20 6.9l-3.6-1.1L20 4.6zM39.6 16.5l.7 2.1 2.1.7-2.1.6-.7 2.2-.7-2.2-2.1-.6 2.1-.7z"/>
</svg>