<?xml version="1.0" encoding="utf-8"?>
<!-- Generated by Glyphs Company app at https://glyphs.co -->
<!-- Copyright Glyphs Company. Please follow included license terms. -->
<!-- Do NOT redistribute -->
<svg class="stroked" xmlns="http://www.w3.org/2000/svg" viewBox="0 0 44 33">
    <g class="line" fill="none" stroke="#000" stroke-width="2" stroke-miterlimit="10">
        <path d="M30.497 4.743l-.994-2.486C29.2 1.497 28.463 1 27.646 1H16.354c-.818 0-1.553.498-1.857 1.257l-.994 2.486C13.2 5.503 12.463 6 11.646 6H3c-1.105 0-2 .895-2 2v22c0 1.105.895 2 2 2h38c1.105 0 2-.895 2-2V8c0-1.105-.895-2-2-2h-8.646c-.818 0-1.553-.498-1.857-1.257z"/>
        <circle cx="22" cy="19" r="9"/>
        <path d="M32 11h4"/>
    </g>
</svg>