<?xml version="1.0" encoding="utf-8"?>
<!-- Generated by Glyphs Company app at https://glyphs.co -->
<!-- Copyright Glyphs Company. Please follow included license terms. -->
<!-- Do NOT redistribute -->
<svg class="stroked" xmlns="http://www.w3.org/2000/svg" viewBox="0 0 44 33">
    <g class="line" fill="none" stroke="#000" stroke-width="2" stroke-miterlimit="10">
        <path d="M42 28H6c-.552 0-1-.448-1-1V2c0-.552.448-1 1-1h36c.552 0 1 .448 1 1v25c0 .552-.448 1-1 1z"/>
        <path stroke-linejoin="round" d="M5 19.132L16.715 7.417l11.453 14.156 8.336-5.633L43 24.164"/>
        <circle cx="30.167" cy="9" r="3"/>
        <path d="M5 5H2c-.552 0-1 .448-1 1v25c0 .552.448 1 1 1h36c.552 0 1-.448 1-1v-3"/>
    </g>
</svg>