<?xml version="1.0" encoding="utf-8"?>
<!-- Generated by Glyphs Company app at https://glyphs.co -->
<!-- Copyright Glyphs Company. Please follow included license terms. -->
<!-- Do NOT redistribute -->
<svg class="stroked" xmlns="http://www.w3.org/2000/svg" viewBox="0 0 44 40.414">
    <g class="line" fill="none" stroke="#000" stroke-width="2" stroke-miterlimit="10">
        <path d="M18 10.414H6.477c-.878 0-1.653.573-1.912 1.412L1 23.414v14c0 1.105.895 2 2 2h38c1.105 0 2-.895 2-2v-14l-3.566-11.588c-.258-.84-1.034-1.412-1.912-1.412H26"/>
        <path d="M43 23.414H29c-.552 0-1 .448-1 1v2c0 .552-.448 1-1 1H17c-.552 0-1-.448-1-1v-2c0-.552-.448-1-1-1H1M22 19.414v-18M16.002 7.412L22 1.414l5.998 5.998"/>
    </g>
</svg>