<?xml version="1.0" encoding="utf-8"?>
<!-- Generated by Glyphs Company app at https://glyphs.co -->
<!-- Copyright Glyphs Company. Please follow included license terms. -->
<!-- Do NOT redistribute -->
<svg class="stroked" xmlns="http://www.w3.org/2000/svg" viewBox="0 0 44 39.223">
    <path d="M31.82 32.223h9.58c.935 0 1.618-.796 1.6-1.73-.005-.287-.007-.884-.007-1.53 0-1.495-.87-2.852-2.233-3.47-1.41-.637-3.302-1.463-5.113-2.162-1.537-.594-3.432-1.577-3.432-1.577-.232-.134-.033-1.344-.033-1.344l-1.32-.2c0-.103-.1-1.58-.1-1.58 1.386-.47 1.243-3.25 1.243-3.25.88.494 1.452-1.7 1.452-1.7 1.043-3.05-.517-2.868-.517-2.868.495-2.283 0-5.62 0-5.62-.694-6.18-11.372-4.233-9.77-2.284-2.724-.77-2.812 2.773-2.645 4.842" class="line" fill="none" stroke="#000" stroke-width="2" stroke-linejoin="round" stroke-miterlimit="10"/>
    <path d="M1 35.334c0-1.51.89-2.877 2.272-3.484 1.77-.778 4.192-1.844 5.816-2.563 1.465-.648 1.78-1.038 3.257-1.702 0 0 .154-.772.1-1.23H13.6s.262.156 0-1.658c0 0-1.41-.38-1.476-3.27 0 0-1.058.363-1.122-1.388-.044-1.19-.946-2.22.352-3.07l-.66-1.814S9.374 7.834 13.17 8.91c-1.6-1.95 9.078-3.897 9.77 2.283 0 0 .496 3.337 0 5.62 0 0 1.56-.183.518 2.868 0 0-.572 2.197-1.452 1.704 0 0 .144 2.777-1.243 3.248 0 0 .1 1.48.1 1.58l1.32.2s-.2 1.21.033 1.345c0 0 1.896.983 3.432 1.58 1.81.697 3.702 1.524 5.113 2.162 1.364.615 2.236 1.973 2.235 3.47 0 .643 0 1.24.007 1.527.02.934-.663 1.73-1.598 1.73h-28.8C1.72 38.224 1 37.507 1 36.62v-1.286z" fill="none" stroke="#000" stroke-width="2" stroke-linejoin="round" stroke-miterlimit="10"/>
</svg>