<?xml version="1.0" encoding="utf-8"?>
<!-- Generated by Glyphs Company app at https://glyphs.co -->
<!-- Copyright Glyphs Company. Please follow included license terms. -->
<!-- Do NOT redistribute -->
<svg class="stroked" xmlns="http://www.w3.org/2000/svg" viewBox="0 0 44 44">
    <path d="M16 43c1.1-3.9 2.9-3.4 4-7.3s-.8-4.4.3-8.3c1.1-3.9 2.9-3.4 4-7.3s-.8-4.4.3-8.3c1.1-3.9 2.9-3.4 4-7.3L15.4 1c-1.1 3.9-2.9 3.4-4 7.3s.8 4.4-.3 8.3c-1.1 3.9-2.9 3.4-4 7.3-.9 3.9.9 4.4-.1 8.3-1.1 3.9-2.9 3.4-4 7.3L16 43z" class="line" fill="none" stroke="#000" stroke-width="2" stroke-linejoin="round" stroke-miterlimit="10"/>
    <path d="M7.6 40.7c1.1-3.9 2.9-3.4 4-7.3s-.8-4.4.3-8.3c1.1-3.9 2.9-3.4 4-7.3s-.8-4.4.3-8.3c1.1-3.9 2.9-3.4 4-7.3" class="line thin" fill="none" stroke="#000" stroke-linejoin="round" stroke-miterlimit="10"/>
    <path d="M11.4 41.7c1.1-3.9 2.9-3.4 4-7.3s-.8-4.4.3-8.3c1.1-3.9 2.9-3.4 4-7.3s-.8-4.4.3-8.3c1.1-3.9 2.9-3.4 4-7.3" class="line" fill="none" stroke="#000" stroke-width="2" stroke-linejoin="round" stroke-miterlimit="10"/>
    <g class="line" fill="none" stroke="#000" stroke-width="2" stroke-linejoin="round" stroke-miterlimit="10">
        <path d="M7 32.2c.2-.8.3-1.5.3-2-1.8 1-3.1.7-5.3 2.9L4.9 36c.7-.9 1.5-1.8 2.1-3.8zM10.4 41.5l1.5 1.5c.3-.3.7-.6 1-.9l-2.5-.6zM33.1 4.8c-3 3-4.4 1.6-7.4 4.5-.2.2-.4.4-.6.7-.3.5-.5 1.1-.7 1.8-1.1 3.9.8 4.4-.3 8.3-1.1 3.9-2.9 3.4-4 7.3s.8 4.4-.3 8.3c-.6 2.3-1.5 3.1-2.4 4.1.5-.3 1.1-.7 1.7-1.4 3-3 1.6-4.4 4.5-7.4 3-3 4.4-1.6 7.4-4.5 3-3 1.6-4.4 4.5-7.4 3-3 4.4-1.6 7.4-4.5l-9.8-9.8z"/>
    </g>
    <g class="line thin" fill="none" stroke="#000" stroke-linejoin="round" stroke-miterlimit="10">
        <path d="M35.9 9c-2.5 2.1-3.9 1.1-6.6 3.9-1.9 1.9-2 3.1-2.6 4.5-.3.8-.8 1.7-2 2.9-.3.3-.6.5-.8.8M35.9 9c.2-.2.5-.4.7-.7l-.7.7z"/>
    </g>
    <g class="line thin" fill="none" stroke="#000" stroke-width="2" stroke-linejoin="round" stroke-miterlimit="10">
        <path d="M38.7 11.9c.2-.2.5-.4.7-.7l-.7.7zM38.7 11.9c-2.5 2.1-3.9 1.1-6.6 3.9-1.9 1.9-2 3.1-2.6 4.5-.3.8-.8 1.7-2 2.9-1.5 1.5-2.6 1.9-3.7 2.3-1.1.4-2.2.8-3.7 2.3l-.1.1c-.1.5-.2.9-.2 1.3"/>
    </g>
</svg>