<?xml version="1.0" encoding="utf-8"?>
<!-- Generated by Glyphs Company app at https://glyphs.co -->
<!-- Copyright Glyphs Company. Please follow included license terms. -->
<!-- Do NOT redistribute -->
<svg class="stroked" xmlns="http://www.w3.org/2000/svg" viewBox="0 0 44 44">
    <path d="M39.2 34c-.7-.4-1.7-.7-2.9-.7-.8 0-1.6.1-2.4.4-2.4.7-4 1.9-5.8 3.3-1.8 1.4-5.1 2.6-7.6 2.5-1.5 0-3.8-.2-4.9-3.3-.7-2-.4-4-.2-6 .3-2.2.5-4.5-.8-6.3-1.9-2.6-3.7-5-7.9-5.4h-.1c-1.1-.1-1.8-1.3-1.5-2.3C7.3 7.3 14.9 1 23.7 1 34.3 1 43 10.3 43 21.7c0 4.5-1.3 8.8-3.8 12.3z" class="line" fill="none" stroke="#000" stroke-width="2" stroke-linejoin="round" stroke-miterlimit="10"/>
    <path d="M15.5 26.1L2.3 29.9c-.4.1-.7.6-.7 1.2L2.9 42c.1.5.4.9.9.9 1.3 0 3.7-.2 4.8-1.3 1.5-1.5 2.1-3.2 2.4-6.3s.3-8 .3-8M15.2 32.2L2 34.3" class="line" fill="none" stroke="#000" stroke-width="2" stroke-miterlimit="10"/>
    <circle cx="26" cy="26" r="3" class="line" fill="none" stroke="#000" stroke-width="2" stroke-linejoin="round" stroke-miterlimit="10"/>
</svg>