<?xml version="1.0" encoding="utf-8"?>
<!-- Generated by Glyphs Company app at https://glyphs.co -->
<!-- Copyright Glyphs Company. Please follow included license terms. -->
<!-- Do NOT redistribute -->
<svg class="stroked" xmlns="http://www.w3.org/2000/svg" viewBox="0 0 44 44">
    <path d="M30 17.5c0-.8-.7-1.5-1.5-1.5.8 0 1.5-.7 1.5-1.5s-.7-1.5-1.5-1.5c1 0 1.6-1.2 1-2L25 5h-6l-4.5 6c-.6.8 0 2 1 2-.8 0-1.5.7-1.5 1.5s.7 1.5 1.5 1.5c-.8 0-1.5.7-1.5 1.5s.7 1.5 1.5 1.5c-.8 0-1.5.7-1.5 1.5s.7 1.5 1.5 1.5c-1.1 0-1.5.9-1.5 2v17c0 1.1.9 2 2 2h12c1.1 0 2-.9 2-2V24c0-1.1-.4-2-1.5-2 .8 0 1.5-.7 1.5-1.5s-.7-1.5-1.5-1.5c.8 0 1.5-.7 1.5-1.5zM19 1h6v4h-6z" class="line" fill="none" stroke="#000" stroke-width="2" stroke-linejoin="round" stroke-miterlimit="10"/>
</svg>