<?xml version="1.0" encoding="utf-8"?>
<!-- Generated by Glyphs Company app at https://glyphs.co -->
<!-- Copyright Glyphs Company. Please follow included license terms. -->
<!-- Do NOT redistribute -->
<svg class="stroked" xmlns="http://www.w3.org/2000/svg" viewBox="0 0 44 44">
    <path d="M24 43h-3c-5.5 0-10-4.5-10-10V16c0-5.5 4.5-10 10-10h3c5.5 0 10 4.5 10 10v17c0 5.5-4.5 10-10 10z" class="line" fill="none" stroke="#000" stroke-width="2" stroke-miterlimit="10"/>
    <path class="line" fill="none" stroke="#000" stroke-miterlimit="10" d="M11 22.5h24M22.5 6v5M22.5 18v5"/>
    <path d="M22.5 18c-.8 0-1.5-.7-1.5-1.5v-4c0-.8.7-1.5 1.5-1.5s1.5.7 1.5 1.5v4c0 .8-.7 1.5-1.5 1.5z" class="line" fill="none" stroke="#000" stroke-width="2" stroke-linejoin="round" stroke-miterlimit="10"/>
    <g class="line" fill="none" stroke="#000" stroke-width="2" stroke-linejoin="round" stroke-miterlimit="10">
        <path d="M26.4.4l-.3 3M34.5 1.4l-2.8 4.2M38.2 9.1l-2.8 1.2"/>
    </g>
</svg>