<?xml version="1.0" encoding="utf-8"?>
<!-- Generated by Glyphs Company app at https://glyphs.co -->
<!-- Copyright Glyphs Company. Please follow included license terms. -->
<!-- Do NOT redistribute -->
<svg class="stroked" xmlns="http://www.w3.org/2000/svg" viewBox="0 0 44 31">
    <g class="line" fill="none" stroke="#000" stroke-width="2" stroke-miterlimit="10">
        <path d="M37.523 1H6.477c-.878 0-1.653.573-1.91 1.412L1 14v14c0 1.105.895 2 2 2h38c1.105 0 2-.895 2-2V14L39.434 2.412C39.176 1.572 38.4 1 37.524 1z"/>
        <path d="M43 14H29c-.552 0-1 .448-1 1v2c0 .552-.448 1-1 1H17c-.552 0-1-.448-1-1v-2c0-.552-.448-1-1-1H1"/>
    </g>
</svg>