<?xml version="1.0" encoding="utf-8"?>
<!-- Generated by Glyphs Company app at https://glyphs.co -->
<!-- Copyright Glyphs Company. Please follow included license terms. -->
<!-- Do NOT redistribute -->
<svg class="stroked" xmlns="http://www.w3.org/2000/svg" viewBox="0 0 44 44">
    <path d="M34.1 7H9.9C8.2 7 6.6 8.1 6.1 9.7L1.6 23.2c-.4 1.2-.6 2.5-.6 3.7V32c0 2.2 1.8 4 4 4h34c2.2 0 4-1.8 4-4v-5.1c0-1.3-.2-2.6-.6-3.8L37.9 9.7C37.4 8.1 35.8 7 34.1 7z" class="line" fill="none" stroke="#000" stroke-width="2" stroke-linejoin="round" stroke-miterlimit="10"/>
    <path d="M32.2 13.7c3 3.4-.6 8-10.2 8s-13.2-4.7-10.2-8c1.9-2.1 6.2-3.3 10.2-3.3s8.3 1.2 10.2 3.3z" class="line" fill="none" stroke="#000" stroke-width="2" stroke-linejoin="round" stroke-miterlimit="10"/>
    <path d="M24.3 15.6c.7.7-.1 1.7-2.3 1.7s-3-1-2.3-1.7c.4-.4 1.4-.7 2.3-.7s1.9.3 2.3.7z" class="line" fill="none" stroke="#000" stroke-linejoin="round" stroke-miterlimit="10"/>
    <path class="line" fill="none" stroke="#000" stroke-width="2" stroke-linejoin="round" stroke-miterlimit="10" d="M1 26h42"/>
    <path class="line" fill="none" stroke="#000" stroke-width="2" stroke-linecap="round" stroke-linejoin="round" stroke-miterlimit="10" d="M14.3 19.6l3.3-1.6"/>
    <path class="line" fill="none" stroke="#000" stroke-width="2" stroke-linejoin="round" stroke-miterlimit="10" d="M6 29v4M9 29v4M12 29v4M15 29v4"/>
    <path class="line" fill="none" stroke="#000" stroke-width="2" stroke-linecap="round" stroke-linejoin="round" stroke-miterlimit="10" d="M33 31h6"/>
</svg>