<?xml version="1.0" encoding="utf-8"?>
<!-- Generated by Glyphs Company app at https://glyphs.co -->
<!-- Copyright Glyphs Company. Please follow included license terms. -->
<!-- Do NOT redistribute -->
<svg class="stroked" xmlns="http://www.w3.org/2000/svg" viewBox="0 0 44 44">
    <path class="line" fill="none" stroke="#000" stroke-width="2" stroke-linejoin="round" stroke-miterlimit="10" d="M4.7 23.6L10 43h24l5.3-19.5"/>
    <path class="line thin" fill="none" stroke="#000" stroke-linecap="round" stroke-linejoin="round" stroke-miterlimit="10" d="M13.7 11.6l-1.2-2M30.7 20.6l1.1-2M7 19.2l1.1-2M21.2 12.1l1.1-2M22.3 6L24 7.5M17.4 17.8l-1.6 1.6M29.4 10.3l-1.7 1.4M13.2 15.3l-1.8 1.5M23 16v2.3M16.9 12.8l1.2 1.9M33.1 11.8V14M36 16.9l1.7 1.5M26.5 15.6l1.7 1.5"/>
    <path d="M36.7 11.5c-.1-.1-.1-.2-.1-.3 0-3.5-2.8-6.3-6.3-6.3-.8 0-1.6.2-2.3.4-.8-2.5-3.2-4.3-6-4.3s-5.2 1.8-6 4.4c-.7-.3-1.5-.5-2.3-.5-3.5 0-6.3 2.8-6.3 6.3v.3h-.1c-3.5 0-6.3 2.8-6.3 6.3s2.8 6.3 6.3 6.3c.9 0 1.7-.2 2.5-.5 1.1.8 2.4 1.3 3.8 1.3 1.6 0 3.1-.6 4.2-1.6 1.1 1 2.6 1.6 4.2 1.6s3.1-.6 4.2-1.6c1.1 1 2.6 1.6 4.2 1.6 1.4 0 2.7-.5 3.8-1.3.7.3 1.6.5 2.4.5 3.5 0 6.3-2.8 6.3-6.3s-2.7-6.3-6.2-6.3z" class="line" fill="none" stroke="#000" stroke-width="2" stroke-miterlimit="10"/>
</svg>