<?xml version="1.0" encoding="utf-8"?>
<!-- Generated by Glyphs Company app at https://glyphs.co -->
<!-- Copyright Glyphs Company. Please follow included license terms. -->
<!-- Do NOT redistribute -->
<svg class="stroked" xmlns="http://www.w3.org/2000/svg" viewBox="0 0 42 42">
    <g class="line" fill="none" stroke="#000" stroke-width="2" stroke-miterlimit="10">
        <path d="M17 19H3c-1.105 0-2-.895-2-2V3c0-1.105.895-2 2-2h14c1.105 0 2 .895 2 2v14c0 1.105-.895 2-2 2zM39 19H25c-1.105 0-2-.895-2-2V3c0-1.105.895-2 2-2h14c1.105 0 2 .895 2 2v14c0 1.105-.895 2-2 2zM17 41H3c-1.105 0-2-.895-2-2V25c0-1.105.895-2 2-2h14c1.105 0 2 .895 2 2v14c0 1.105-.895 2-2 2zM39 41H25c-1.105 0-2-.895-2-2V25c0-1.105.895-2 2-2h14c1.105 0 2 .895 2 2v14c0 1.105-.895 2-2 2zM10 5v10M15 10H5M37 10H27M13.536 28.464l-7.072 7.072M13.536 35.536l-7.072-7.072M37 30H27M37 34H27"/>
    </g>
</svg>