<?xml version="1.0" encoding="utf-8"?>
<!-- Generated by Glyphs Company app at https://glyphs.co -->
<!-- Copyright Glyphs Company. Please follow included license terms. -->
<!-- Do NOT redistribute -->
<svg class="stroked" xmlns="http://www.w3.org/2000/svg" viewBox="0 0 44 44">
    <path d="M15.2 8.2s-1.2-1-.5-2.1S17 .8 17.9 1s7.5 1.8 9.1 2.6c1.6.8 3.7 3.7 4.5 4.7s8.2 11.3 9.4 14.9c1.2 3.6 2.3 6.3 1.3 7.9s-4.3 4.7-7.1 6.4-6.4 4.3-9.5 4.7c-3.1.3-8.9.1-10.4-.4 0 0-2.9 2.2-7.3.8-4.2-1.3-6.2-4.9-5.7-9.6.5-4.8 2.6-6.7 3.9-7.6C8 24 10 23.6 12.6 23.8c3.5.2 5.5 2.4 6.1 2.9 0 0 1.7-2 4.5-2.3 3.5-.4 5.4 1.8 6 2.4 0 0-1.3-2.5-1.3-4.7s.3-7.9-.4-9.5c-.7-1.6-2.1-3.4-2.9-3.1-.7.3-2.5.6-3.3.1-.8-.5-1.5-.3-1.9.1-.5.1-3.7.6-4.2-1.5z" class="line" fill="none" stroke="#000" stroke-width="2" stroke-linejoin="round" stroke-miterlimit="10"/>
</svg>