<?xml version="1.0" encoding="utf-8"?>
<!-- Generated by Glyphs Company app at https://glyphs.co -->
<!-- Copyright Glyphs Company. Please follow included license terms. -->
<!-- Do NOT redistribute -->
<svg class="stroked" xmlns="http://www.w3.org/2000/svg" viewBox="0 0 44 44">
    <path d="M9 43c-1.7 0-3-1.3-3-3V4c0-1.6 1.3-3 3-3 1.6 0 3 1.3 3 3v36c0 1.7-1.3 3-3 3zM6 8h6M6 28h6M6 32h6M19 43c-1.7 0-3-1.3-3-3V4c0-1.6 1.3-3 3-3 1.6 0 3 1.3 3 3v36c0 1.7-1.3 3-3 3zM16 8h6M16 28h6M16 32h6M29 0v44M26 38h6M37 0v44M34 38h6" class="line" fill="none" stroke="#000" stroke-width="2" stroke-miterlimit="10"/>
</svg>