<?xml version="1.0" encoding="utf-8"?>
<!-- Generated by Glyphs Company app at https://glyphs.co -->
<!-- Copyright Glyphs Company. Please follow included license terms. -->
<!-- Do NOT redistribute -->
<svg class="stroked" xmlns="http://www.w3.org/2000/svg" viewBox="0 0 44 44">
    <path d="M21.7 22L12 11.7C9.7 9.2 11.5 5 15 5h12.9c3.4 0 5.3 4.1 3 6.6L21.7 22zM21.7 22L12 32.3c-2.3 2.5-.5 6.7 3 6.7h12.9c3.4 0 5.3-4.1 3-6.6L21.7 22zM33.2 5h-24c-.6 0-1-.4-1-1V2c0-.6.4-1 1-1h24c.6 0 1 .4 1 1v2c0 .6-.4 1-1 1zM33.2 43h-24c-.6 0-1-.4-1-1v-2c0-.6.4-1 1-1h24c.6 0 1 .4 1 1v2c0 .6-.4 1-1 1z" class="line" fill="none" stroke="#000" stroke-width="2" stroke-miterlimit="10"/>
    <path class="line" fill="none" stroke="#000" stroke-miterlimit="10" d="M14.1 13.5h15M11.6 34.5h4.8c.6 0 1.1-.1 1.6-.3l2.1-.9c1-.5 2.2-.5 3.2 0l2.1.9c.5.2 1.1.3 1.6.3h4.5"/>
</svg>