<?xml version="1.0" encoding="utf-8"?>
<!-- Generated by Glyphs Company app at https://glyphs.co -->
<!-- Copyright Glyphs Company. Please follow included license terms. -->
<!-- Do NOT redistribute -->
<svg class="stroked" xmlns="http://www.w3.org/2000/svg" viewBox="0 0 44 44">
    <g class="line" fill="none" stroke="#000" stroke-width="2" stroke-miterlimit="10">
        <path d="M43 28H29c-.552 0-1 .448-1 1v2c0 .552-.448 1-1 1H17c-.552 0-1-.448-1-1v-2c0-.552-.448-1-1-1H1"/>
        <path d="M41 43H3c-1.105 0-2-.895-2-2V3c0-1.105.895-2 2-2h38c1.105 0 2 .895 2 2v38c0 1.105-.895 2-2 2z"/>
    </g>
</svg>