<?xml version="1.0" encoding="utf-8"?>
<!-- Generated by Glyphs Company app at https://glyphs.co -->
<!-- Copyright Glyphs Company. Please follow included license terms. -->
<!-- Do NOT redistribute -->
<svg class="stroked" xmlns="http://www.w3.org/2000/svg" viewBox="0 0 44 44">
    <path class="line" fill="none" stroke="#000" stroke-width="2" stroke-miterlimit="10" d="M12 0v6M16 0v6M20 0v6M24 0v6M28 0v6M32 0v6M12 38v6M16 38v6M20 38v6M24 38v6M28 38v6M32 38v6M44 12h-6M44 16h-6M44 20h-6M44 24h-6M44 28h-6M44 32h-6M6 12H0M6 16H0M6 20H0M6 24H0M6 28H0M6 32H0M36 38H8c-1.1 0-2-.9-2-2V8c0-1.1.9-2 2-2h28c1.1 0 2 .9 2 2v28c0 1.1-.9 2-2 2z"/>
    <path class="line" fill="none" stroke="#000" stroke-width="2" stroke-miterlimit="10" d="M11 11h22v22H11z"/>
</svg>