<?xml version="1.0" encoding="utf-8"?>
<!-- Generated by Glyphs Company app at https://glyphs.co -->
<!-- Copyright Glyphs Company. Please follow included license terms. -->
<!-- Do NOT redistribute -->
<svg class="stroked" xmlns="http://www.w3.org/2000/svg" viewBox="0 0 44 44">
    <g class="line" fill="none" stroke="#000" stroke-width="2" stroke-miterlimit="10">
        <path d="M41 43H3c-1.105 0-2-.895-2-2V6c0-1.105.895-2 2-2h38c1.105 0 2 .895 2 2v35c0 1.105-.895 2-2 2zM1 15h42M9 0v8M35 0v8"/>
        <path d="M5 23h4v-4M12 23h4v-4M19 23h4v-4M26 23h4v-4M33 23h4v-4M5 30h4v-4M12 30h4v-4M19 30h4v-4M26 30h4v-4M33 30h4v-4M5 37h4v-4M12 37h4v-4M19 37h4v-4M26 37h4v-4M33 37h4v-4"/>
    </g>
</svg>