<?xml version="1.0" encoding="utf-8"?>
<!-- Generated by Glyphs Company app at https://glyphs.co -->
<!-- Copyright Glyphs Company. Please follow included license terms. -->
<!-- Do NOT redistribute -->
<svg class="stroked" xmlns="http://www.w3.org/2000/svg" viewBox="0 0 44 44">
    <path d="M30 43H14c-1.1 0-2-.9-2-2V15c0-1.1.9-2 2-2h16c1.1 0 2 .9 2 2v26c0 1.1-.9 2-2 2zM29 13H15c-.6 0-1-.4-1-1v-2c0-.6.4-1 1-1h14c.5 0 1 .4 1 1v2c0 .6-.5 1-1 1zM28 9v-.5c0-2.2-1.3-3.9-3.1-4.1-.3-2-1.5-3.4-2.9-3.4s-2.6 1.4-2.9 3.3c-1.7.2-3.1 2-3.1 4.1v.5h12zM23 18h6M25 23h4M23 28h6M25 33h4M23 38h6" class="line" fill="none" stroke="#000" stroke-width="2" stroke-miterlimit="10"/>
</svg>