<?xml version="1.0" encoding="utf-8"?>
<!-- Generated by Glyphs Company app at https://glyphs.co -->
<!-- Copyright Glyphs Company. Please follow included license terms. -->
<!-- Do NOT redistribute -->
<svg class="stroked" xmlns="http://www.w3.org/2000/svg" viewBox="0 0 44 44">
    <path d="M22 33.9c1.9-.6 8.9-2.9 11.9-8.5s1.6-12.8 1-14.8c-1.4.4-4.9 1.7-8 4.3M17 14.9c-3.1-2.6-6.7-3.9-8-4.3-.5 2.1-2 9.2 1 14.8 3 5.6 10 7.9 11.9 8.5" class="line" fill="none" stroke="#000" stroke-width="2" stroke-linejoin="round" stroke-miterlimit="10"/>
    <path d="M22 7c-1.4 1.5-6 7-6 13.5 0 6.4 4.6 11.9 6 13.5 1.4-1.5 6-7 6-13.5S23.4 8.5 22 7z" class="line" fill="none" stroke="#000" stroke-width="2" stroke-linejoin="round" stroke-miterlimit="10"/>
    <path d="M22 33.9c1.1.6 3.1 1.1 5.9 1.1 3.1 0 5.7-.7 7.9-2 4.8-3.1 6.8-9.5 7.3-11.5-.9-.2-2.9-.6-5.1-.6-.8 0-1.6.1-2.4.2" class="line" fill="none" stroke="#000" stroke-width="2" stroke-linejoin="round" stroke-miterlimit="10"/>
    <path d="M8.6 21c-.8-.1-1.6-.2-2.4-.2-2.3 0-4.2.4-5.1.6.5 2 2.4 8.4 7.3 11.5 2.1 1.4 4.8 2 7.9 2 3.2 0 4.7-.5 5.9-1.1" class="line" fill="none" stroke="#000" stroke-width="2" stroke-linejoin="round" stroke-miterlimit="10"/>
</svg>