<?xml version="1.0" encoding="utf-8"?>
<!-- Generated by Glyphs Company app at https://glyphs.co -->
<!-- Copyright Glyphs Company. Please follow included license terms. -->
<!-- Do NOT redistribute -->
<svg class="stroked" xmlns="http://www.w3.org/2000/svg" viewBox="0 0 44 44">
    <circle cx="22" cy="22" r="7" class="line" fill="none" stroke="#000" stroke-width="2" stroke-miterlimit="10"/>
    <path d="M22 1c-2.5 0-4.9.5-7.1 1.3 0 1.4-.8 2-.8 2s1.3 1.2.6 3.1C14.1 8.8 12 8.9 12 8.9s1.3 1.9-.2 3.6c-1.4 1.6-3.4 1-3.4 1s-.1 1.7-2.1 2.4c-1.8.7-3.3-.6-3.3-.6-.4.4-.8.7-1.2.8C1.3 18 1 20 1 22c0 11.6 9.4 21 21 21s21-9.4 21-21S33.6 1 22 1z" class="line" fill="none" stroke="#000" stroke-width="2" stroke-linejoin="round" stroke-miterlimit="10"/>
    <path d="M1.1 23.1s5.1 2 5.8 4.8.4 5.2 2.6 5.3 1.7-5 3-6 3.9-1.1 3.9-1.1M29.1 22s2.5.7 2.2 3.5c-.1 1.2 0 7.1 2.1 7.1s1.7-5.8 1.7-7.6c0-3.2 1.6-4.8 3.8-4.8 2.3 0 2.7 3.7 4.1 3.6" class="line" fill="none" stroke="#000" stroke-width="2" stroke-miterlimit="10"/>
</svg>