<?xml version="1.0" encoding="utf-8"?>
<!-- Generated by Glyphs Company app at https://glyphs.co -->
<!-- Copyright Glyphs Company. Please follow included license terms. -->
<!-- Do NOT redistribute -->
<svg class="stroked" xmlns="http://www.w3.org/2000/svg" viewBox="0 0 44 44">
    <path d="M25.5 31.6s-6.1 5.9-8.2 10.4c0 0-10.5-7.6-15.3-16.6 0 0 5.8-2.8 10-8.8l.4-.6s1.5-2.4 3.7-2.7c2.3-.3 4.1 2.9 5.8 3 1.7.1 5.2-6.5 10.1-10.8 5-4.4 10-3.4 10-3.4.9 10.9-15.2 16.3-15.3 19.3 0 1.4 2.7 3.7 2.6 5.9-.2 2.2-2.9 3.7-2.9 3.7l-.9.6z" clip-rule="evenodd" class="line" fill="none" stroke="#000" stroke-width="2" stroke-miterlimit="10"/>
    <path d="M2 25.4C6.8 34.4 17.3 42 17.3 42c2-4.6 8.2-10.4 8.2-10.4L12 16.6c-4.2 6-10 8.8-10 8.8z" clip-rule="evenodd" class="line" fill="none" stroke="#000" stroke-width="2" stroke-miterlimit="10"/>
</svg>