<?xml version="1.0" encoding="utf-8"?>
<!-- Generated by Glyphs Company app at https://glyphs.co -->
<!-- Copyright Glyphs Company. Please follow included license terms. -->
<!-- Do NOT redistribute -->
<svg class="stroked" xmlns="http://www.w3.org/2000/svg" viewBox="0 0 34 44">
    <g class="line" fill="none" stroke="#000" stroke-width="2" stroke-miterlimit="10">
        <path d="M31 39H7c-1.105 0-2-.895-2-2V3c0-1.105.895-2 2-2h15.172c.53 0 1.04.21 1.414.586l8.828 8.828c.375.375.586.884.586 1.414V37c0 1.105-.895 2-2 2z"/>
        <path d="M23 1v7.952c0 1.105.895 2 2 2h8M7 39c-1.105 0-2-.895-2-2V7c0-1.105-.895-2-2-2s-2 .895-2 2v34c0 1.105.895 2 2 2h24c1.105 0 2-.895 2-2s-.895-2-2-2H7z"/>
    </g>
</svg>