<?xml version="1.0" encoding="utf-8"?>
<!-- Generated by Glyphs Company app at https://glyphs.co -->
<!-- Copyright Glyphs Company. Please follow included license terms. -->
<!-- Do NOT redistribute -->
<svg class="stroked" xmlns="http://www.w3.org/2000/svg" viewBox="0 0 44 44">
    <path d="M35.4 26.1c-1.5-.6-2.7-1-3-1.1-.3-.1-.8-1-1-1.4-.2-.4-1.4-1.2-1.7-1.2v-1.6l5.3-2s-1.2-2.2-1.5-3.4c-.4-1.2-.6-3.1-.6-3.3s-.7-4.5-1.1-5.3c-.4-.8-.9-2-1.8-2.5-.9-.6-2.2-1.4-4.2-1.5h-.2c-1.9.1-3.3.9-4.2 1.5-.9.6-1.5 1.7-1.8 2.5-.2.4-.4 1.3-.6 2.4" class="line" fill="none" stroke="#000" stroke-width="2" stroke-linejoin="round" stroke-miterlimit="10"/>
    <path d="M28.1 32.7c-2.2-.8-4.8-1.8-5.1-1.9-.3-.1-.8-1-1-1.4-.2-.4-1.4-1.2-1.7-1.2v-1.6l5.3-2s-1.2-2.2-1.5-3.4c-.4-1.2-.6-3.1-.6-3.3 0-.2-.7-4.5-1.1-5.3-.4-.8-.9-2-1.8-2.5-.9-.6-2.2-1.4-4.2-1.5h-.2c-1.9.1-3.3.9-4.2 1.5-.9.6-1.5 1.7-1.8 2.5-.5.9-1.2 5.2-1.2 5.4 0 .2-.2 2.1-.5 3.3-.4 1.2-1.5 3.3-1.5 3.3l5.3 2v1.6c-.3 0-1.5.8-1.7 1.2-.2.4-.7 1.2-1 1.4-.4.1-3.5 1.3-5.8 2.1-1.5.5-2.6 1.9-2.8 3.5-.1.8.6 1.6 1.5 1.6h27" class="line" fill="none" stroke="#000" stroke-width="2" stroke-linejoin="round" stroke-miterlimit="10"/>
    <g class="line" fill="none" stroke="#000" stroke-miterlimit="10">
        <ellipse cx="35.5" cy="33.6" rx="7.5" ry="7.4" stroke-width="1.867"/>
        <path d="M35.5 30.1v7M39 33.6h-7"/>
    </g>
</svg>