<?xml version="1.0" encoding="utf-8"?>
<!-- Generated by Glyphs Company app at https://glyphs.co -->
<!-- Copyright Glyphs Company. Please follow included license terms. -->
<!-- Do NOT redistribute -->
<svg class="stroked" xmlns="http://www.w3.org/2000/svg" viewBox="0 0 44 44">
    <g class="line" fill="none" stroke="#000" stroke-width="2" stroke-linejoin="round" stroke-miterlimit="10">
        <path d="M12.2 37.4l-5.7-5.7s6.1-8.9 14.8-17.7c8.3-8.3 11.3-8.5 11.3-8.5l5.7 5.7s-.3 3.1-8.5 11.3C21 31.3 12.2 37.4 12.2 37.4zM2.3 41.6l4.2-9.9 5.7 5.7z"/>
        <path d="M34.1 6.9l-2.2-2.2c-2-2-3.5-2.2-4.8-1.3-1.4.9-1.6 2.5-3.3 4.2l-8.5 8.5.7.7" stroke-linecap="round"/>
        <path d="M37.6 10.5l-4.2-4.2 2.8-2.8c.8-.8 2-.8 2.8 0l1.4 1.4c.8.8.8 2 0 2.8l-2.8 2.8z"/>
    </g>
</svg>