<?xml version="1.0" encoding="utf-8"?>
<!-- Generated by Glyphs Company app at https://glyphs.co -->
<!-- Copyright Glyphs Company. Please follow included license terms. -->
<!-- Do NOT redistribute -->
<svg class="stroked" xmlns="http://www.w3.org/2000/svg" viewBox="0 0 37 43.623">
    <g class="line" fill="none" stroke="#000" stroke-width="2" stroke-miterlimit="10">
        <path d="M36 10.623l-23 4V6.305c0-.972.7-1.804 1.657-1.97l19-3.304C34.88.82 36 1.76 36 3v7.623zM8 42.623H6c-2.76 0-5-2.24-5-5s2.24-5 5-5h7v5c0 2.76-2.24 5-5 5zM12.995 14.626v22.85M31 38.623h-2c-2.76 0-5-2.24-5-5s2.24-5 5-5h7v5c0 2.76-2.24 5-5 5zM35.995 10.626v22.85"/>
    </g>
</svg>