<?xml version="1.0" encoding="utf-8"?>
<!-- Generated by Glyphs Company app at https://glyphs.co -->
<!-- Copyright Glyphs Company. Please follow included license terms. -->
<!-- Do NOT redistribute -->
<svg class="stroked" xmlns="http://www.w3.org/2000/svg" viewBox="0 0 44 37">
    <g class="line" fill="none" stroke="#000" stroke-width="2" stroke-miterlimit="10">
        <path d="M18 7H6.477c-.878 0-1.653.573-1.91 1.412L1 20v14c0 1.105.895 2 2 2h38c1.105 0 2-.895 2-2V20L39.434 8.412C39.176 7.572 38.4 7 37.524 7H26"/>
        <path d="M43 20H29c-.552 0-1 .448-1 1v2c0 .552-.448 1-1 1H17c-.552 0-1-.448-1-1v-2c0-.552-.448-1-1-1H1M22 0v18M27.998 12.002L22 18l-5.998-5.998"/>
    </g>
</svg>