<?xml version="1.0" encoding="utf-8"?>
<!-- Generated by Glyphs Company app at https://glyphs.co -->
<!-- Copyright Glyphs Company. Please follow included license terms. -->
<!-- Do NOT redistribute -->
<svg class="stroked" xmlns="http://www.w3.org/2000/svg" viewBox="0 0 44 44">
    <path d="M42 13.4c-.7-2.1-3.4-3.9-4.9-5.8-.2-.3-.4-.7-.4-1.1l-.4-2.9c0-.3-.1-.5-.3-.8-.5-.8-1.5-1.1-2.3-.8l-.9.4c-.5.2-.8.7-.8 1.2v1c0 .4.1.8.2 1.1l1.3 2.8c.5.8.7 3 .5 4-.6 2.9-1.8 11.3-9.5 16.3-5 3.2-9.7 3.7-13.4 4.1-3.1.3-8.7 1.6-8.9 1.6-1 .3-1.3 2.9-.7 3.5 10.2 9.7 26.3 2.6 30.3 0 10-6.5 13-16.3 10.2-24.6z" class="line" fill="none" stroke="#000" stroke-width="2" stroke-miterlimit="10"/>
    <path d="M1 36.2s6.5 2.1 10.2 1.8 15.9-1.2 22.2-8.2c7.2-7.9 5.2-16.4 3.2-22.6" class="line thin" fill="none" stroke="#000" stroke-miterlimit="10"/>
</svg>