<?xml version="1.0" encoding="utf-8"?>
<!-- Generated by Glyphs Company app at https://glyphs.co -->
<!-- Copyright Glyphs Company. Please follow included license terms. -->
<!-- Do NOT redistribute -->
<svg class="stroked" xmlns="http://www.w3.org/2000/svg" viewBox="0 0 44 44">
    <path d="M24 43h-4.1c-5 0-9.7-4-10.1-9-.8-9.6-.8-14.4 0-24.1C10.3 5 15 1 20 1h4.1c5 0 9.7 4 10.1 9 .8 9.6.8 14.4 0 24.1C33.7 39 29 43 24 43z" class="line" fill="none" stroke="#000" stroke-width="2" stroke-miterlimit="10"/>
    <path d="M23.2 29.8c-.7.2-1.2.6-1.2 1.4.8 0 1.2-.6 1.2-1.4zm1.3 4.5c-.3-.2-.7-.5-.8-1.1-.1-.7.2-1.1.6-1.4-.3-.4-.7-.6-1.3-.6-.3 0-.7.3-1 .3-.3 0-.6-.2-.9-.3-1-.1-1.6.8-1.7 1.7v.3c.1 1.1.6 2.3 1.5 2.6h.2c.4-.1.6-.3.9-.3.4 0 .7.3 1.2.2.3-.1.5-.4.7-.7.3-.1.5-.4.6-.7z" clip-rule="evenodd" class="line" fill="none" stroke="#000" stroke-miterlimit="10"/>
</svg>