<?xml version="1.0" encoding="utf-8"?>
<!-- Generated by Glyphs Company app at https://glyphs.co -->
<!-- Copyright Glyphs Company. Please follow included license terms. -->
<!-- Do NOT redistribute -->
<svg class="stroked" xmlns="http://www.w3.org/2000/svg" viewBox="0 0 44 44">
    <path class="line" fill="none" stroke="#000" stroke-width="2" stroke-linejoin="round" stroke-miterlimit="10" d="M2 31h40v12H2zM8 19h28v12H8zM14 7h16v12H14z"/>
    <path d="M2 35c2.5 0 2.5 2 5 2s2.5-2 5-2 2.5 2 5 2 2.5-2 5-2 2.5 2 5 2 2.5-2 5-2 2.5 2 5 2 2.5-2 5-2M8 23.1c2.3 0 2.3 2 4.7 2 2.3 0 2.3-2 4.7-2 2.3 0 2.3 2 4.7 2 2.3 0 2.3-2 4.7-2 2.3 0 2.3 2 4.7 2 2.3 0 2.3-2 4.7-2M14 11.1c2 0 2 2 4 2s2-2 4-2 2 2 4 2 2-2 4-2M22 7V0M18 7V0M26 7V0" class="line" fill="none" stroke="#000" stroke-width="2" stroke-linejoin="round" stroke-miterlimit="10"/>
</svg>