<?xml version="1.0" encoding="utf-8"?>
<!-- Generated by Glyphs Company app at https://glyphs.co -->
<!-- Copyright Glyphs Company. Please follow included license terms. -->
<!-- Do NOT redistribute -->
<svg class="stroked" xmlns="http://www.w3.org/2000/svg" viewBox="0 0 44 44">
    <path d="M22.4 43h-.8c-6.4 0-11.4-5.5-11-11.9l.4-5.8c.4-5.8 5.2-10.3 11-10.3s10.6 4.5 11 10.3l.4 5.8c.5 6.4-4.6 11.9-11 11.9z" class="line" fill="none" stroke="#000" stroke-width="2" stroke-linecap="round" stroke-miterlimit="10"/>
    <path d="M29 2.9s-3.1 1.6-5 4.7C23.9 3.9 22 1 22 1s-1.9 2.9-2 6.6c-2-3.1-5-4.7-5-4.7s-.2 3.7 1.8 7.1 5.2 5 5.2 5 3.3-1.7 5.2-5.1 1.8-7 1.8-7z" class="line" fill="none" stroke="#000" stroke-width="2" stroke-linecap="round" stroke-linejoin="round" stroke-miterlimit="10"/>
    <path d="M24 8c0 3.9-2 7-2 7s-2-3.1-2-7 2-7 2-7 2 3.1 2 7z" class="line" fill="none" stroke="#000" stroke-width="2" stroke-linecap="round" stroke-linejoin="round" stroke-miterlimit="10"/>
    <path d="M24 8c0 3.9-2 7-2 7s-2-3.1-2-7 2-7 2-7 2 3.1 2 7z" class="line" fill="none" stroke="#000" stroke-width="2" stroke-linecap="round" stroke-linejoin="round" stroke-miterlimit="10"/>
    <g class="line thin" fill="none" stroke="#000" stroke-miterlimit="10">
        <path d="M20.6 37l1.4-1.4 1.4 1.4M17.6 34l1.4-1.4 1.4 1.4M23.6 34l1.4-1.4 1.4 1.4M17.6 22l1.4-1.4 1.4 1.4M23.6 22l1.4-1.4 1.4 1.4M20.6 31l1.4-1.4 1.4 1.4M26.6 31l1.4-1.4 1.4 1.4M14.6 31l1.4-1.4 1.4 1.4M20.6 25l1.4-1.4 1.4 1.4M26.6 25l1.4-1.4 1.4 1.4M14.6 25l1.4-1.4 1.4 1.4M14.6 37l1.4-1.4 1.4 1.4M26.6 37l1.4-1.4 1.4 1.4M17.6 28l1.4-1.4 1.4 1.4M23.6 28l1.4-1.4 1.4 1.4"/>
    </g>
</svg>