<?xml version="1.0" encoding="utf-8"?>
<!-- Generated by Glyphs Company app at https://glyphs.co -->
<!-- Copyright Glyphs Company. Please follow included license terms. -->
<!-- Do NOT redistribute -->
<svg class="stroked" xmlns="http://www.w3.org/2000/svg" viewBox="0 0 44 44">
    <path d="M32.2 32.7c-2.6.7-5.4-.8-6.2-3.5l-1.6-5.8c-.7-2.6.8-5.4 3.5-6.2 2.6-.7 5.4.8 6.2 3.5l1.6 5.8c.7 2.7-.9 5.5-3.5 6.2z" class="line" fill="none" stroke="#000" stroke-width="2" stroke-miterlimit="10"/>
    <path d="M41 37H3c-1.1 0-2-.9-2-2V9c0-1.1.9-2 2-2h38c1.1 0 2 .9 2 2v26c0 1.1-.9 2-2 2z" class="line" fill="none" stroke="#000" stroke-width="2" stroke-miterlimit="10"/>
    <path d="M9.6 0s0 9.1 6 12c4.2 2 9.1-.7 12.2 5.3" class="line" fill="none" stroke="#000" stroke-width="2" stroke-miterlimit="10"/>
</svg>