<?xml version="1.0" encoding="utf-8"?>
<!-- Generated by Glyphs Company app at https://glyphs.co -->
<!-- Copyright Glyphs Company. Please follow included license terms. -->
<!-- Do NOT redistribute -->
<svg class="stroked" xmlns="http://www.w3.org/2000/svg" viewBox="0 0 44 38">
    <g class="line" fill="none" stroke="#000" stroke-width="2" stroke-miterlimit="10">
        <path d="M22 38V20M16.002 25.998L22 20l5.998 5.998"/>
        <path d="M19 31h-8.813C5.113 31 1 26.912 1 21.87c0-4.83 3.774-8.772 8.55-9.1-.01-.118-.02-.236-.02-.357 0-2.7 2.205-4.89 4.923-4.89.735 0 1.43.164 2.057.45C17.725 3.943 21.484 1 25.937 1c5.437 0 9.844 4.38 9.844 9.783 0 .94-.14 1.846-.39 2.706 4.3.603 7.61 4.265 7.61 8.705C43 27.058 39.035 31 34.14 31H25" clip-rule="evenodd"/>
    </g>
</svg>