<?xml version="1.0" encoding="utf-8"?>
<!-- Generated by Glyphs Company app at https://glyphs.co -->
<!-- Copyright Glyphs Company. Please follow included license terms. -->
<!-- Do NOT redistribute -->
<svg class="stroked" xmlns="http://www.w3.org/2000/svg" viewBox="0 0 44 44">
    <path class="line" fill="none" stroke="#000" stroke-width="2" stroke-linecap="round" stroke-linejoin="round" stroke-miterlimit="10" d="M17.9 16.6h9.2l-9.2 12h9.2M10.9 19.6h4l-4 5.3h4M29.6 19.6h4.1l-4.1 5.3h4.1"/>
    <path d="M43 25.5c0-3-1.9-5.5-4.5-6.6.3-.9.4-1.9.4-2.9.1-5.5-4.4-10-10-10-3.3 0-6.2 1.6-8 4-1.2-.7-2.7-1-4.2-1-4 0-7.4 2.7-8.5 6.3C4.1 16.1 1 19.7 1 24c0 4.9 4 8.9 8.9 8.9 1.1 0 2.1-.2 3-.5 1.6 3.5 5.1 5.9 9.1 5.9 3 0 5.7-1.3 7.6-3.5.7.5 1.6.8 2.6.8 1.9 0 3.6-1.2 4.2-2.9 3.7-.4 6.6-3.4 6.6-7.2z" class="line" fill="none" stroke="#000" stroke-width="2" stroke-miterlimit="10"/>
</svg>