<?xml version="1.0" encoding="utf-8"?>
<!-- Generated by Glyphs Company app at https://glyphs.co -->
<!-- Copyright Glyphs Company. Please follow included license terms. -->
<!-- Do NOT redistribute -->
<svg class="stroked" xmlns="http://www.w3.org/2000/svg" viewBox="0 0 44 44">
    <g class="line" fill="none" stroke="#000" stroke-miterlimit="10" stroke-width="2">
        <ellipse cx="35.5" cy="29.4" rx="7.5" ry="7.4" />
        <path d="M35.5 26v7M39 29.5h-7"/>
    </g>
    <path d="M38.2 22.5l3.1-3.1c1.1-1.2.5-3.1-1.1-3.4l-10.3-1.6c-.7-.1-1.2-.5-1.5-1.1l-4.5-9.7c-.7-1.5-2.9-1.5-3.6 0l-4.5 9.7c-.3.6-.8 1-1.5 1.1L3.9 16c-1.6.2-2.3 2.2-1.1 3.4l7.6 7.8c.4.5.6 1.1.5 1.7L9.1 39.7c-.3 1.6 1.5 2.9 2.9 2.1l9-5c.6-.3 1.3-.3 1.9 0l9 5c1.5.8 3.2-.4 2.9-2.1l-.5-2.9" clip-rule="evenodd" class="line" fill="none" stroke="#000" stroke-width="2" stroke-miterlimit="10"/>
</svg>