<?xml version="1.0" encoding="utf-8"?>
<!-- Generated by Glyphs Company app at https://glyphs.co -->
<!-- Copyright Glyphs Company. Please follow included license terms. -->
<!-- Do NOT redistribute -->
<svg class="stroked" xmlns="http://www.w3.org/2000/svg" viewBox="0 0 44 44">
    <path d="M28.7 1.2c-.2 0-.3 0-.5-.1-1.9 2-3.5 4.4-4.8 7.2.8 1.4 2.1 2.3 3.8 3 0 .3-.3.6-.5.8-3.6 3.9-7.3 8.1-11 11.9-.6-1.6-1.8-2.6-3.1-3.5-2.7 1.3-4.9 3.2-6.9 5.4v.1c.9 3 3 5.1 6.4 6.1.3 0 .7.1 1 .1 1.8-.2 2.9-1.1 4.3-2.2 5.3-3.9 9.5-8.4 13.4-13.8 1.5-2.1 3.5-4.7 4.3-7.5v-.2c-.3-3.7-2.6-6.1-6.4-7.3z" class="line" fill="none" stroke="#000" stroke-width="2" stroke-linejoin="round" stroke-miterlimit="10"/>
    <path d="M8.9 30.6s-3.1 3.7-1.5 7.8c1.7 4.3 6.6 5.2 16.3 2.2 9.7-3 12.1 2.1 12.1 2.1" class="line" fill="none" stroke="#000" stroke-width="2" stroke-linecap="round" stroke-linejoin="round" stroke-miterlimit="10"/>
</svg>