<?xml version="1.0" encoding="utf-8"?>
<!-- Generated by Glyphs Company app at https://glyphs.co -->
<!-- Copyright Glyphs Company. Please follow included license terms. -->
<!-- Do NOT redistribute -->
<svg class="stroked" xmlns="http://www.w3.org/2000/svg" viewBox="0 0 44 44">
    <path class="line" fill="none" stroke="#000" stroke-width="2" stroke-miterlimit="10" d="M10 1h24v6H10zM34 43H10c-2.2 0-4-1.8-4-4V11c0-2.2 1.8-4 4-4h24c2.2 0 4 1.8 4 4v28c0 2.2-1.8 4-4 4zM6 14h32M38 36H6M13 1v6M16 1v6M19 1v6M22 1v6M25 1v6M28 1v6M31 1v6"/>
</svg>