<?xml version="1.0" encoding="utf-8"?>
<!-- Generated by Glyphs Company app at https://glyphs.co -->
<!-- Copyright Glyphs Company. Please follow included license terms. -->
<!-- Do NOT redistribute -->
<svg class="stroked" xmlns="http://www.w3.org/2000/svg" viewBox="0 0 37 44">
    <g class="line" fill="none" stroke="#000" stroke-width="2" stroke-miterlimit="10">
        <path d="M34 43H3c-1.105 0-2-.895-2-2V3c0-1.105.895-2 2-2h31c1.105 0 2 .895 2 2v38c0 1.105-.895 2-2 2z"/>
        <path d="M31 16H6c-.552 0-1-.448-1-1V6c0-.552.448-1 1-1h25c.552 0 1 .448 1 1v9c0 .552-.448 1-1 1zM5 24h4v-4M12 24h4v-4M19 24h4v-4M26 24h4v-4M5 31h4v-4M12 31h4v-4M19 31h4v-4M26 31h4v-4M5 38h4v-4M12 38h4v-4M19 38h4v-4M26 38h4v-4"/>
    </g>
</svg>