<?xml version="1.0" encoding="utf-8"?>
<!-- Generated by Glyphs Company app at https://glyphs.co -->
<!-- Copyright Glyphs Company. Please follow included license terms. -->
<!-- Do NOT redistribute -->
<svg class="stroked" xmlns="http://www.w3.org/2000/svg" viewBox="0 0 35 31.135">
    <g class="line" fill="none" stroke="#000" stroke-width="2" stroke-miterlimit="10">
        <path d="M9 23.002H2c-.552 0-1-.448-1-1v-12c0-.552.448-1 1-1h7v14zM19.445 29.965L9 23.002v-14l10.4-7.8c.66-.494 1.6-.024 1.6.8v27.13c0 .8-.89 1.276-1.555.833zM24 12.002c2.21 0 4 1.79 4 4s-1.79 4-4 4"/>
        <path d="M24 6.002c5.523 0 10 4.477 10 10s-4.477 10-10 10"/>
    </g>
</svg>