<?xml version="1.0" encoding="utf-8"?>
<!-- Generated by Glyphs Company app at https://glyphs.co -->
<!-- Copyright Glyphs Company. Please follow included license terms. -->
<!-- Do NOT redistribute -->
<svg class="stroked" xmlns="http://www.w3.org/2000/svg" viewBox="0 0 44 44">
    <path d="M26.7 14.9c-1.6 2.3-2.7 5.8-2.7 9 0 5.5 3.1 8 6.9 8s6.9-2.5 6.9-8c0-3.2-1.1-6.7-2.7-9h-8.4zM31 31.9V43" class="line" fill="none" stroke="#000" stroke-width="2" stroke-miterlimit="10"/>
    <path class="line" fill="none" stroke="#000" stroke-width="2" stroke-linecap="round" stroke-miterlimit="10" d="M26 43h10"/>
    <path class="line" fill="none" stroke="#000" stroke-width="2" stroke-miterlimit="10" d="M24 23h13.8M7 22h10v18H7z"/>
    <path d="M15 13.6V1H9v12.6c-2.9 1.2-5 4.1-5 7.4v22h16V21c0-3.4-2.1-6.2-5-7.4z" class="line" fill="none" stroke="#000" stroke-width="2" stroke-linejoin="round" stroke-miterlimit="10"/>
    <path class="line" fill="none" stroke="#000" stroke-width="2" stroke-miterlimit="10" d="M9 5h6"/>
</svg>