<?xml version="1.0" encoding="utf-8"?>
<!-- Generated by Glyphs Company app at https://glyphs.co -->
<!-- Copyright Glyphs Company. Please follow included license terms. -->
<!-- Do NOT redistribute -->
<svg class="stroked" xmlns="http://www.w3.org/2000/svg" viewBox="0 0 44 44">
    <path d="M27.6 8c-.6-.9-1.2-2-1.5-2.7.2-.2.4-.4.5-.6.3-.5.3-1 .3-1.3C26.9 2 26.1 1 25 1h-6.7c-.7 0-1.3.4-1.6 1-.3.5-.3 1-.3 1.3 0 .8.3 1.5.8 1.9-.3.8-.9 1.9-1.4 2.8-1.7 3-3.8 6.7-3.8 9.6V38c0 2.7 2.6 5 5.5 5h8.4c2.9 0 5.5-2.4 5.5-5V17.6c-.1-2.9-2.2-6.6-3.8-9.6z" class="line" fill="none" stroke="#000" stroke-width="2" stroke-linejoin="round" stroke-miterlimit="10"/>
</svg>