<?xml version="1.0" encoding="utf-8"?>
<!-- Generated by Glyphs Company app at https://glyphs.co -->
<!-- Copyright Glyphs Company. Please follow included license terms. -->
<!-- Do NOT redistribute -->
<svg class="stroked" xmlns="http://www.w3.org/2000/svg" viewBox="0 0 44 44">
    <path d="M25 10.7V3c0-1.1-.9-2-2-2h-1c-1.1 0-2 .9-2 2v7.7c0 1.9-.5 3.8-1.6 5.4-2 3.2-3.4 10.2-3.4 12.9v12c0 1.1.9 2 2 2h11c1.1 0 2-.9 2-2V29c0-2.7-1.4-9.7-3.4-12.9-1.1-1.6-1.6-3.5-1.6-5.4zM19.5 14h6M15 28h14.9M15 39h15" class="line" fill="none" stroke="#000" stroke-width="2" stroke-linejoin="round" stroke-miterlimit="10"/>
</svg>