<?xml version="1.0" encoding="utf-8"?>
<!-- Generated by Glyphs Company app at https://glyphs.co -->
<!-- Copyright Glyphs Company. Please follow included license terms. -->
<!-- Do NOT redistribute -->
<svg class="stroked" xmlns="http://www.w3.org/2000/svg" viewBox="0 0 44 44">
    <path d="M33 15.1l-1.9 27.1c0 .5-.5.9-1 .9H13.9c-.5 0-1-.4-1-.9L11 15.1M12.7 6.3S15.6 1 22.7 1H26M33.5 15.1h-23c-.3 0-.5-.2-.5-.5v-4.5c0-.6.4-1 1-1h22c.6 0 1 .4 1 1v4.5c0 .2-.2.5-.5.5z" class="line" fill="none" stroke="#000" stroke-width="2" stroke-miterlimit="10"/>
    <path d="M31 6.1V1h-5v3.3" class="line" fill="none" stroke="#000" stroke-width="2" stroke-linejoin="round" stroke-miterlimit="10"/>
    <path d="M33 9c0-2.8-4.9-5-11-5S11 6.2 11 9" class="line" fill="none" stroke="#000" stroke-width="2" stroke-miterlimit="10"/>
</svg>