<?xml version="1.0" encoding="utf-8"?>
<!-- Generated by Glyphs Company app at https://glyphs.co -->
<!-- Copyright Glyphs Company. Please follow included license terms. -->
<!-- Do NOT redistribute -->
<svg class="stroked" xmlns="http://www.w3.org/2000/svg" viewBox="0 0 44 44">
    <path d="M31.3 17.7c.7 2.3-.8 4.3-3.5 4.3H14.4c-2.8 0-4.4-2.1-3.7-4.5.6-1.9 2.7-3.4 4.9-3.5v-.1c.2-.9 1.2-1.6 2.3-1.6.3 0 .6 0 .8.1.6-1.2 2.1-2 3.8-2 2.1 0 4 1.2 4.4 2.8.1.3.1.6 0 .9 1.9.4 3.8 1.8 4.4 3.6z" clip-rule="evenodd" class="line" fill="none" stroke="#000" stroke-width="2" stroke-miterlimit="10"/>
    <path class="line" fill="none" stroke="#000" stroke-width="2" stroke-linecap="round" stroke-linejoin="round" stroke-miterlimit="10" d="M5 31h2"/>
    <path d="M34.1 7H9.9C8.2 7 6.6 8.1 6.1 9.7L1.6 23.2c-.4 1.2-.6 2.5-.6 3.7V32c0 2.2 1.8 4 4 4h34c2.2 0 4-1.8 4-4v-5.1c0-1.3-.2-2.6-.6-3.8L37.9 9.7C37.4 8.1 35.8 7 34.1 7zM1 26h42" class="line" fill="none" stroke="#000" stroke-width="2" stroke-linejoin="round" stroke-miterlimit="10"/>
    <path class="line" fill="none" stroke="#000" stroke-width="2" stroke-linecap="round" stroke-linejoin="round" stroke-miterlimit="10" d="M33 31h6"/>
</svg>