<?xml version="1.0" encoding="utf-8"?>
<!-- Generated by Glyphs Company app at https://glyphs.co -->
<!-- Copyright Glyphs Company. Please follow included license terms. -->
<!-- Do NOT redistribute -->
<svg class="stroked" xmlns="http://www.w3.org/2000/svg" viewBox="0 0 44 44">
    <path d="M30.7 19.8l11.1-11c1.3-1.3 2-4-.3-6.3-2.5-2.5-5.1-1.4-6.3-.2l-11 11c-3.3 3.3-10 13.9-14.2 18.1l-4.8 4.8c-.9-.9-2.3-.9-3.2 0l-.4.4c-.9.9-.9 2.3 0 3.2l2.6 2.6c.9.9 2.3.9 3.2 0l.4-.4c.9-.9.9-2.3 0-3.2l4.8-4.8c4.2-4.2 14.9-10.7 18.1-14.2zM15.5 24.6l3.9 3.9" class="line" fill="none" stroke="#000" stroke-width="2" stroke-linejoin="round" stroke-miterlimit="10"/>
    <circle cx="33" cy="32" r="4" class="line" fill="none" stroke="#000" stroke-width="2" stroke-linejoin="round" stroke-miterlimit="10"/>
</svg>