<?xml version="1.0" encoding="utf-8"?>
<!-- Generated by Glyphs Company app at https://glyphs.co -->
<!-- Copyright Glyphs Company. Please follow included license terms. -->
<!-- Do NOT redistribute -->
<svg class="stroked" xmlns="http://www.w3.org/2000/svg" viewBox="0 0 44 44">
    <path d="M42.5 12.4c-.2-.6-.3-1.2-.5-1.9-.3-1.3-.4-2.6 0-3.9.1-.4.1-.8.2-1.2.2-1.8-1.8-4-4-3.4h-.7c-1.1.3-2.2.3-3.3.1-.7-.1-1.3-.3-2-.4-1.7-.5-3.4-.8-5.2-.7-2.8.2-5.4 1-7.9 2.2-2.5 1.2-4.8 2.7-6.9 4.5C10.3 9.3 8.6 11.1 7 13c-2.4 2.9-4.1 6.1-5.1 9.7-.6 2.2-1 4.4-.7 6.7.2 1.3.5 2.5.8 3.7.3 1.5.5 2.9.1 4.4-.1.2-.1.5-.1.7-.4 2.1 1.7 4 3.3 3.8.5-.1 1-.1 1.4-.2 1-.3 2-.3 3-.1 1 .1 1.9.4 2.9.7 1.8.5 3.7.6 5.6.4 3.7-.5 7.1-1.9 10.2-3.9 2.2-1.4 4.2-3 5.8-4.8 1.3-1.3 2.5-2.5 3.5-3.8 2.1-2.8 3.7-5.9 4.7-9.3.7-2.8.9-5.7.1-8.6z" class="line" fill="none" stroke="#000" stroke-width="2" stroke-miterlimit="10"/>
</svg>