<?xml version="1.0" encoding="utf-8"?>
<!-- Generated by Glyphs Company app at https://glyphs.co -->
<!-- Copyright Glyphs Company. Please follow included license terms. -->
<!-- Do NOT redistribute -->
<svg class="stroked" xmlns="http://www.w3.org/2000/svg" viewBox="0 0 44 44">
    <path d="M41 35H3c-1.1 0-2-.9-2-2V13c0-1.1.9-2 2-2h38c1.1 0 2 .9 2 2v20c0 1.1-.9 2-2 2zM22 11V0" class="line" fill="none" stroke="#000" stroke-width="2" stroke-miterlimit="10"/>
    <path clip-rule="evenodd" class="line" fill="none" stroke="#000" stroke-miterlimit="10" d="M4.5 14.5h4v2h-4zM10.5 14.5h4v2h-4zM16.5 14.5h4v2h-4zM22.5 14.5h4v2h-4zM28.5 14.5h4v2h-4zM34.5 14.5h5v2h-5zM4.5 18.5h3v3h-3zM9.5 18.5h4v3h-4zM15.5 18.5h4v3h-4zM21.5 18.5h4v3h-4zM27.5 18.5h4v3h-4zM33.5 18.5h6v3h-6zM4.5 23.5h5v3h-5zM4.5 28.5h4v3h-4zM35.5 28.5h4v3h-4zM10.5 28.5h23v3h-23zM11.5 23.5h4v3h-4zM17.5 23.5h4v3h-4zM23.5 23.5h4v3h-4zM29.5 23.5h4v3h-4zM35.5 23.5h4v3h-4z"/>
</svg>