<?xml version="1.0" encoding="utf-8"?>
<!-- Generated by Glyphs Company app at https://glyphs.co -->
<!-- Copyright Glyphs Company. Please follow included license terms. -->
<!-- Do NOT redistribute -->
<svg class="stroked" xmlns="http://www.w3.org/2000/svg" viewBox="0 0 44 44">
    <g class="line" fill="none" stroke="#000" stroke-miterlimit="10" stroke-width="2">
        <ellipse cx="32.5" cy="29.4" rx="7.5" ry="7.4" />
        <path d="M36 29.5h-7"/>
    </g>
    <path d="M33.8 22.1c-.5-1-1-2.1-1.2-3-.5-1.6-.8-4.2-.8-4.4s-1-6.1-1.5-7.3C29.8 6.3 29 4.8 27.8 4c-1.2-.8-3.1-1.8-5.7-2h-.2c-2.6.1-4.5 1.2-5.7 2-1.2.8-2 2.3-2.5 3.5-.5 1.1-1.5 7-1.5 7.3s-.3 2.9-.7 4.5c-.5 1.6-2.1 4.5-2.1 4.5l7.3 2.7-.1 2.2c-.4.1-2 1.1-2.3 1.6-.2.5-.9 1.7-1.3 1.8-.5.2-4.7 1.7-7.8 2.8-2.1.7-3.5 2.6-3.8 4.8-.3 1.2.6 2.3 1.8 2.3h37.5c1.2 0 2.1-1.1 2-2.3-.3-2.1-1.6-3.8-3.6-4.6-.4-.2-.8-.3-1.3-.5" class="line" fill="none" stroke="#000" stroke-width="2" stroke-linejoin="round" stroke-miterlimit="10"/>
</svg>