<?xml version="1.0" encoding="utf-8"?>
<!-- Generated by Glyphs Company app at https://glyphs.co -->
<!-- Copyright Glyphs Company. Please follow included license terms. -->
<!-- Do NOT redistribute -->
<svg class="stroked" xmlns="http://www.w3.org/2000/svg" viewBox="0 0 44 44">
    <path d="M40 11H8c-1.1 0-2-.9-2-2V3c0-1.1.9-2 2-2h32c1.1 0 2 .9 2 2v6c0 1.1-.9 2-2 2z" class="line" fill="none" stroke="#000" stroke-width="2" stroke-linejoin="round" stroke-miterlimit="10"/>
    <path d="M6 5.8H3c-.6 0-1 .4-1 1V15c0 .6.4 1 1 1h20c.6 0 1 .4 1 1v12M25 43h-2c-.6 0-1-.4-1-1V30c0-.6.4-1 1-1h2c.6 0 1 .4 1 1v12c0 .6-.4 1-1 1z" class="line" fill="none" stroke="#000" stroke-width="2" stroke-linejoin="round" stroke-miterlimit="10"/>
</svg>