<?xml version="1.0" encoding="utf-8"?>
<!-- Generated by Glyphs Company app at https://glyphs.co -->
<!-- Copyright Glyphs Company. Please follow included license terms. -->
<!-- Do NOT redistribute -->
<svg class="stroked" xmlns="http://www.w3.org/2000/svg" viewBox="0 0 44 44">
    <path d="M41 3c-3.2 0-3.2-2-6.3-2-3.2 0-3.2 2-6.3 2-3.2 0-3.2-2-6.3-2-3.2 0-3.2 2-6.3 2-3.2 0-3.2-2-6.3-2S6.2 3 3 3M14 35c0 4.4 3.6 8 8 8s8-3.6 8-8" class="line" fill="none" stroke="#000" stroke-width="2" stroke-linecap="round" stroke-linejoin="round" stroke-miterlimit="10"/>
    <path class="line" fill="none" stroke="#000" stroke-width="2" stroke-linecap="round" stroke-miterlimit="10" d="M41 3L30 35H14L3 3"/>
    <path class="line" fill="none" stroke="#000" stroke-linecap="round" stroke-miterlimit="10" d="M26 28.8l5.8-22.1M17.8 28.8L12 6.7M22 28.8V7"/>
</svg>