<?xml version="1.0" encoding="utf-8"?>
<!-- Generated by Glyphs Company app at https://glyphs.co -->
<!-- Copyright Glyphs Company. Please follow included license terms. -->
<!-- Do NOT redistribute -->
<svg class="stroked" xmlns="http://www.w3.org/2000/svg" viewBox="0 0 44 44">
    <g class="line" fill="none" stroke="#000" stroke-width="2" stroke-miterlimit="10">
        <path d="M18.293 22.72l-3.624 1.69c-.064-.658-.23-1.316-.524-1.947-1.384-2.968-4.945-4.264-7.913-2.88l-1.8.84c-2.967 1.383-4.263 4.944-2.88 7.912S6.5 32.6 9.47 31.215l.9-.42.898-.418 4.417-2.06M21.28 25.707l17.87-8.332c4.932-2.3 3.718-6.114 3.718-6.114L23.89 20.11"/>
        <path d="M32.74 1.132l-13.15 28.2c.658.06 1.316.227 1.947.52 2.968 1.385 4.264 4.946 2.88 7.914l-.84 1.8c-1.383 2.967-4.944 4.263-7.912 2.88S11.4 37.5 12.785 34.53l.42-.9.418-.898L26.626 4.85c2.3-4.932 6.114-3.718 6.114-3.718z"/>
    </g>
</svg>