<?xml version="1.0" encoding="utf-8"?>
<!-- Generated by Glyphs Company app at https://glyphs.co -->
<!-- Copyright Glyphs Company. Please follow included license terms. -->
<!-- Do NOT redistribute -->
<svg class="stroked" xmlns="http://www.w3.org/2000/svg" viewBox="0 0 44 44">
    <path class="line" fill="none" stroke="#000" stroke-width="2" stroke-linecap="round" stroke-linejoin="round" stroke-miterlimit="10" d="M22 23.2V43"/>
    <circle cx="22" cy="9" r="8" class="line" fill="none" stroke="#000" stroke-width="2" stroke-linecap="round" stroke-linejoin="round" stroke-miterlimit="10"/>
    <g class="line thin" fill="none" stroke="#000" stroke-linejoin="round" stroke-miterlimit="10">
        <path d="M22 1.6v2.5M18.3 2.6l1.2 2.1M15.6 5.3l2.1 1.2M14.6 9h2.5M15.6 12.7l2.1-1.2M28.4 12.7l-2.1-1.2M29.4 9h-2.5M28.4 5.3l-2.1 1.2M25.7 2.6l-1.2 2.1"/>
    </g>
    <path d="M14.3 7h-7c-2.3 0-4.1 1.9-4 4.2l1.6 28c.1 2.1 1.9 3.8 4 3.8h26.4c2.1 0 3.9-1.7 4-3.8l1.6-28c.1-2.3-1.7-4.2-4-4.2h-7" class="line" fill="none" stroke="#000" stroke-width="2" stroke-linejoin="round" stroke-miterlimit="10"/>
</svg>