<?xml version="1.0" encoding="utf-8"?>
<!-- Generated by Glyphs Company app at https://glyphs.co -->
<!-- Copyright Glyphs Company. Please follow included license terms. -->
<!-- Do NOT redistribute -->
<svg class="stroked" xmlns="http://www.w3.org/2000/svg" viewBox="0 0 44 44">
    <path d="M34.4 15.8L41 9.2c1.5-1.5 1.3-4.2-.5-5.7-1.6-1.3-3.9-1.2-5.3.2l-6.5 6.5 5.7 5.6z" class="line" fill="none" stroke="#000" stroke-width="2" stroke-miterlimit="10"/>
    <path d="M30.2 20l-5.7-5.7L8.2 30.6l-4 7.3c-.3.1-.6.3-.9.5-.8.8-.8 2 0 2.8s2 .8 2.8 0c.3-.3.4-.6.5-.9l7.3-4L30.2 20z" class="line" fill="none" stroke="#000" stroke-width="2" stroke-linejoin="round" stroke-miterlimit="10"/>
    <path class="line" fill="none" stroke="#000" stroke-width="2" stroke-linecap="round" stroke-linejoin="round" stroke-miterlimit="10" d="M26.64 8.053l9.9 9.9-4.242 4.242-9.9-9.9z"/>
</svg>