<?xml version="1.0" encoding="utf-8"?>
<!-- Generated by Glyphs Company app at https://glyphs.co -->
<!-- Copyright Glyphs Company. Please follow included license terms. -->
<!-- Do NOT redistribute -->
<svg class="stroked" xmlns="http://www.w3.org/2000/svg" viewBox="0 0 44 32">
    <g class="line" fill="none" stroke="#000" stroke-width="2" stroke-miterlimit="10">
        <path d="M22 10v11"/>
        <circle cx="22" cy="24" r="3"/>
        <path d="M22 4v3M13 6.412l1.5 2.598M6.412 13l2.598 1.5M4 22h3M40 22h-3M37.588 13l-2.598 1.5M31 6.412L29.5 9.01M41.514 29.714c1.134-2.848 1.677-5.993 1.426-9.302C42.143 9.907 33.437 1.464 22.91 1.02 10.9.51 1 10.1 1 22c0 2.73.536 5.327 1.487 7.716C2.794 30.486 3.53 31 4.36 31h35.28c.83 0 1.566-.515 1.874-1.286z"/>
    </g>
</svg>