<?xml version="1.0" encoding="utf-8"?>
<!-- Generated by Glyphs Company app at https://glyphs.co -->
<!-- Copyright Glyphs Company. Please follow included license terms. -->
<!-- Do NOT redistribute -->
<svg class="stroked" xmlns="http://www.w3.org/2000/svg" viewBox="0 0 44 44">
    <path d="M29.4 15.7c.4-.9.6-2 .6-3.1 0-4.4-3.6-8-8-8s-8 3.6-8 8c0 1.1.2 2.1.6 3.1" class="line" fill="none" stroke="#000" stroke-width="2" stroke-miterlimit="10"/>
    <path class="line" fill="none" stroke="#000" stroke-width="2" stroke-linecap="round" stroke-miterlimit="10" d="M9 28H1M10.2 21.6s-2.1-1.1-3.5-2.4c-1.4-1.3-2.5-2.9-2.5-2.9M10.2 34.4s-2.1 1.1-3.5 2.4c-1.4 1.3-2.5 2.9-2.5 2.9M35 28h8M33.8 21.6s2.1-1.1 3.5-2.4c1.4-1.3 2.5-2.9 2.5-2.9M33.8 34.4s2.1 1.1 3.5 2.4c1.4 1.3 2.5 2.9 2.5 2.9M17.1 6.3s-1.4-1.9-2.9-3.1S11 1.1 11 1.1M26.9 6.2s1.4-1.9 2.9-3.1S33 1 33 1"/>
    <ellipse cx="22" cy="28" rx="13" ry="15" class="line" fill="none" stroke="#000" stroke-width="2" stroke-miterlimit="10"/>
    <path class="line" fill="none" stroke="#000" stroke-width="2" stroke-miterlimit="10" d="M22 13v30"/>
</svg>