<?xml version="1.0" encoding="utf-8"?>
<!-- Generated by Glyphs Company app at https://glyphs.co -->
<!-- Copyright Glyphs Company. Please follow included license terms. -->
<!-- Do NOT redistribute -->
<svg class="stroked" xmlns="http://www.w3.org/2000/svg" viewBox="0 0 44 44">
    <path d="M39.7 4.3C34.9-.5 27 0 22.7 5.3l-6.4 8c-2.6 3.3-2.9 7.8-.9 11.4l-6.1 6.1c-.2-.3-.4-.5-.6-.7-1.8-1.8-4.7-1.8-6.4 0-1.8 1.8-1.8 4.7 0 6.4 1.1 1.1 2.5 1.5 3.9 1.3-.2 1.4.2 2.8 1.3 3.9 1.8 1.8 4.7 1.8 6.4 0 1.8-1.8 1.8-4.7 0-6.4-.2-.2-.5-.4-.7-.6l6.1-6.1c3.5 2 8 1.7 11.4-.9l8-6.4c5.3-4.3 5.8-12.2 1-17z" class="line" fill="none" stroke="#000" stroke-width="2" stroke-linejoin="round" stroke-miterlimit="10"/>
    <path d="M13.8 26.4s.5 1.6 2 2c1.4.3 1.9 1.9 1.9 1.9" class="line thin" fill="none" stroke="#000" stroke-linejoin="round" stroke-miterlimit="10"/>
</svg>