<?xml version="1.0" encoding="utf-8"?>
<!-- Generated by Glyphs Company app at https://glyphs.co -->
<!-- Copyright Glyphs Company. Please follow included license terms. -->
<!-- Do NOT redistribute -->
<svg class="stroked" xmlns="http://www.w3.org/2000/svg" viewBox="0 0 44 44">
    <path class="line" fill="none" stroke="#000" stroke-width="2" stroke-miterlimit="10" d="M31 31.9V43"/>
    <path class="line" fill="none" stroke="#000" stroke-width="2" stroke-linecap="round" stroke-miterlimit="10" d="M26 43h10"/>
    <path class="line" fill="none" stroke="#000" stroke-width="2" stroke-miterlimit="10" d="M26.6 19h8.9M31 32c-2.7 0-4.8-2.2-4.8-4.8l.6-13.2h8.3l.7 13.2c0 2.6-2.1 4.8-4.8 4.8z"/>
    <path d="M15 10.7V3c0-1.1-.9-2-2-2h-1c-1.1 0-2 .9-2 2v7.7c0 1.9-.5 3.8-1.6 5.4C6.4 19.3 5 26.3 5 29v12c0 1.1.9 2 2 2h11c1.1 0 2-.9 2-2V29c0-2.7-1.4-9.7-3.4-12.9-1.1-1.6-1.6-3.5-1.6-5.4zM9.5 14h6M5 28h14.9M5 39h15" class="line" fill="none" stroke="#000" stroke-width="2" stroke-linejoin="round" stroke-miterlimit="10"/>
</svg>