<?xml version="1.0" encoding="utf-8"?>
<!-- Generated by Glyphs Company app at https://glyphs.co -->
<!-- Copyright Glyphs Company. Please follow included license terms. -->
<!-- Do NOT redistribute -->
<svg class="stroked" xmlns="http://www.w3.org/2000/svg" viewBox="0 0 44 44">
    <path d="M33.8 24c2.3 0 4.2-1.9 4.2-4.3s-1.9-4.3-4.2-4.3-4.2 1.9-4.2 4.3 1.7 4.3 4.2 4.3z" class="line" fill="none" stroke="#000" stroke-width="2" stroke-linejoin="round" stroke-miterlimit="10"/>
    <path d="M6 26.9l10.3-6.1 2.2-1.2-3.3-6c0-.1-.1-.2-.1-.3-.7-1.6.5-2.9 1.4-3.1L29 7.8h.3c1.3 0 2.4 1.1 2.4 2.4 0 1.2-.9 2.2-2.1 2.4l-8.1 1.5 7.3 13M1 28.5c4.2 0 4.2 4 8.4 4s4.2-4 8.4-4 4.2 4 8.4 4 4.2-4 8.4-4 4.2 4 8.4 4M1 35.5c4.2 0 4.2 4 8.4 4s4.2-4 8.4-4 4.2 4 8.4 4 4.2-4 8.4-4 4.2 4 8.4 4" class="line" fill="none" stroke="#000" stroke-width="2" stroke-linecap="round" stroke-linejoin="round" stroke-miterlimit="10"/>
</svg>