<?xml version="1.0" encoding="utf-8"?>
<!-- Generated by Glyphs Company app at https://glyphs.co -->
<!-- Copyright Glyphs Company. Please follow included license terms. -->
<!-- Do NOT redistribute -->
<svg class="stroked" xmlns="http://www.w3.org/2000/svg" viewBox="0 0 44 44">
    <circle cx="22" cy="22" r="21" class="line" fill="none" stroke="#000" stroke-width="2" stroke-miterlimit="10"/>
    <path d="M40 22c0 2.3-2.4 4.1-3.2 6.1-.9 2.1-.5 5-2.1 6.6-1.6 1.6-4.5 1.2-6.6 2.1-2 .8-3.8 3.2-6.1 3.2s-4.1-2.4-6.1-3.2c-2.1-.9-5-.5-6.6-2.1-1.6-1.6-1.2-4.5-2.1-6.6-.8-2-3.2-3.8-3.2-6.1s2.4-4.1 3.2-6.1c.9-2.1.5-5 2.1-6.6 1.6-1.6 4.5-1.2 6.6-2.1 2-.8 3.8-3.2 6.1-3.2s4.1 2.4 6.1 3.2c2.1.9 5 .5 6.6 2.1 1.6 1.6 1.2 4.5 2.1 6.6.8 2 3.2 3.8 3.2 6.1z" class="line" fill="none" stroke="#000" stroke-width="2" stroke-miterlimit="10"/>
    <circle cx="22" cy="22" r="7" class="line" fill="none" stroke="#000" stroke-width="2" stroke-miterlimit="10"/>
    <path class="line" fill="none" stroke="#000" stroke-width="2" stroke-linecap="round" stroke-miterlimit="10" d="M21.5 8.9l2 2M11.6 19.6l-2 2M30.8 12.3l-.2 2.8M15.7 10.5l.6 2.8M30.1 29.6l-1.6 2.3M23 34.3l-2.3-1.6M12.1 29l2 2M33.2 22.4l1.1 2.6"/>
</svg>