<?xml version="1.0" encoding="utf-8"?>
<!-- Generated by Glyphs Company app at https://glyphs.co -->
<!-- Copyright Glyphs Company. Please follow included license terms. -->
<!-- Do NOT redistribute -->
<svg class="stroked" xmlns="http://www.w3.org/2000/svg" viewBox="0 0 44 38.845">
    <path d="M28.346 31.844h13.11c.935 0 1.655-.823 1.53-1.748 0-.01-.003-.02-.004-.028-.21-1.59-1.26-2.946-2.762-3.514-2.428-.92-5.792-2.19-6.21-2.347-.31-.108-.834-1.003-1.02-1.42-.184-.4-1.434-1.22-1.758-1.265l-.046-1.697 5.6-2.068S35.57 15.49 35.2 14.224s-.602-3.24-.602-3.425-.756-4.724-1.173-5.603c-.4-.88-.972-2.083-1.93-2.67-.94-.587-2.36-1.42-4.396-1.528h-.186c-2.037.107-3.456.94-4.398 1.527-.957.586-1.528 1.79-1.93 2.67-.176.374-.415 1.413-.63 2.496" class="line" fill="none" stroke="#000" stroke-width="2" stroke-linejoin="round" stroke-miterlimit="10"/>
    <path d="M31.457 37.845c.934 0 1.654-.823 1.53-1.748l-.005-.028c-.21-1.593-1.26-2.948-2.76-3.516-2.43-.92-5.793-2.19-6.212-2.347-.31-.108-.833-1.003-1.018-1.42-.185-.4-1.435-1.22-1.76-1.265l-.045-1.697 5.6-2.068S25.57 21.49 25.2 20.225c-.37-1.265-.603-3.24-.603-3.425s-.756-4.722-1.173-5.6c-.4-.88-.972-2.084-1.93-2.67-.94-.59-2.36-1.422-4.397-1.53h-.185c-2.037.108-3.456.94-4.398 1.528-.957.586-1.528 1.79-1.93 2.67-.416.88-1.172 5.415-1.172 5.6s-.216 2.237-.57 3.503c-.37 1.267-1.62 3.458-1.62 3.458l5.6 2.068-.046 1.697c-.324.046-1.574.864-1.76 1.265-.184.417-.71 1.312-1.017 1.42-.41.152-3.64 1.315-6.054 2.183-1.596.575-2.718 2.004-2.93 3.686l-.005.03c-.12.922.6 1.74 1.53 1.74h28.916z" fill="none" stroke="#000" stroke-width="2" stroke-linejoin="round" stroke-miterlimit="10"/>
</svg>