<?xml version="1.0" encoding="utf-8"?>
<!-- Generated by Glyphs Company app at https://glyphs.co -->
<!-- Copyright Glyphs Company. Please follow included license terms. -->
<!-- Do NOT redistribute -->
<svg class="stroked" xmlns="http://www.w3.org/2000/svg" viewBox="0 0 44 44">
    <path d="M9.1 11.7c-1.4-.1-2.8.3-3.9 1.3-2.3 2-2.5 5.4-.5 7.7l7.5 8.6" class="line" fill="none" stroke="#000" stroke-width="2" stroke-miterlimit="10"/>
    <path d="M30.2 33.3c1.7-1.2 2.8-3.1 3.3-6.2L35 14.6C35.5 7.2 30 1 23 1h-2c-5.5 0-10.1 3.9-11.5 9.2-.5 2-.5 4.1-.1 6.1l2.2 10.8c.7 2.9 1.5 4.8 2.6 6" class="line" fill="none" stroke="#000" stroke-width="2" stroke-miterlimit="10"/>
    <path d="M28.5 43h-13c-1.1 0-2-.9-2-2v-7c0-.6.4-1 1-1h15c.6 0 1 .4 1 1v7c0 1.1-.9 2-2 2zM26 33v10" class="line" fill="none" stroke="#000" stroke-width="2" stroke-miterlimit="10"/>
</svg>