<?xml version="1.0" encoding="utf-8"?>
<!-- Generated by Glyphs Company app at https://glyphs.co -->
<!-- Copyright Glyphs Company. Please follow included license terms. -->
<!-- Do NOT redistribute -->
<svg class="stroked" xmlns="http://www.w3.org/2000/svg" viewBox="0 0 44 44">
    <path d="M29 43c0-4.2 2-4.2 2-8.4s-2-4.2-2-8.4 2-4.2 2-8.4-2-4.2-2-8.4 2-4.2 2-8.4H15c0 4.2-2 4.2-2 8.4s2 4.2 2 8.4-2 4.2-2 8.4 2 4.2 2 8.4-2 4.2-2 8.4h16z" class="line thin" fill="none" stroke="#000" stroke-width="2" stroke-linejoin="round" stroke-miterlimit="10"/>
    <path d="M19 43c0-4.2 2-4.2 2-8.4s-2-4.2-2-8.4 2-4.2 2-8.4-2-4.2-2-8.4 2-4.2 2-8.4" class="line thin" fill="none" stroke="#000" stroke-linejoin="round" stroke-miterlimit="10"/>
    <path d="M23 43c0-4.2 2-4.2 2-8.4s-2-4.2-2-8.4 2-4.2 2-8.4-2-4.2-2-8.4 2-4.2 2-8.4" class="line" fill="none" stroke="#000" stroke-width="2" stroke-linejoin="round" stroke-miterlimit="10"/>
</svg>