<?xml version="1.0" encoding="utf-8"?>
<!-- Generated by Glyphs Company app at https://glyphs.co -->
<!-- Copyright Glyphs Company. Please follow included license terms. -->
<!-- Do NOT redistribute -->
<svg class="stroked" xmlns="http://www.w3.org/2000/svg" viewBox="0 0 44 44">
    <path class="line" fill="none" stroke="#000" stroke-width="2" stroke-miterlimit="10" d="M18 29l-4-7 4-7h8l4 7-4 7z"/>
    <path class="line" fill="none" stroke="#000" stroke-width="2" stroke-miterlimit="10" d="M37.6 8H30l-4 7 4 7h8l3.9-6.8M41.9 28.8L38 22h-8l-4 7 4 7h7.6"/>
    <path class="line" fill="none" stroke="#000" stroke-width="2" stroke-miterlimit="10" d="M26.2 42.6L30 36l-4-7h-8l-4 7 3.8 6.6"/>
    <path class="line" fill="none" stroke="#000" stroke-width="2" stroke-miterlimit="10" d="M6.4 36H14l4-7-4-7H6l-3.9 6.8M2.1 15.2L6 22h8l4-7-4-7H6.4"/>
    <path class="line" fill="none" stroke="#000" stroke-width="2" stroke-miterlimit="10" d="M17.8 1.4L14 8l4 7h8l4-7-3.8-6.6"/>
    <circle cx="22" cy="22" r="21" class="line" fill="none" stroke="#000" stroke-width="2" stroke-miterlimit="10"/>
</svg>