<?xml version="1.0" encoding="utf-8"?>
<!-- Generated by Glyphs Company app at https://glyphs.co -->
<!-- Copyright Glyphs Company. Please follow included license terms. -->
<!-- Do NOT redistribute -->
<svg class="stroked" xmlns="http://www.w3.org/2000/svg" viewBox="0 0 44 44">
    <path class="line" fill="none" stroke="#000" stroke-width="2" stroke-miterlimit="10" d="M14.5 26.5L9 21v14h14l-5.5-5.5"/>
    <g class="line" fill="none" stroke="#000" stroke-width="2" stroke-linejoin="round" stroke-miterlimit="10">
        <path d="M21.3 27.9l-5.1-5.1L36.3 2.5c.8-.8 2-.8 2.8 0l2.3 2.3c.8.8.8 2 0 2.8L21.3 27.9zM12 32l4.1-9.3 5.2 5.2zM35.1 3.7l5.2 5.1"/>
    </g>
    <path class="line" fill="none" stroke="#000" stroke-width="2" stroke-linejoin="round" stroke-miterlimit="10" d="M1 13h3M1 18h3M1 23h3M1 28h3M1 33h3M1 38h3"/>
    <path class="line" fill="none" stroke="#000" stroke-width="2" stroke-miterlimit="10" d="M18.4 20.4L1 3v40h40L23.6 25.6"/>
</svg>