<?xml version="1.0" encoding="utf-8"?>
<!-- Generated by Glyphs Company app at https://glyphs.co -->
<!-- Copyright Glyphs Company. Please follow included license terms. -->
<!-- Do NOT redistribute -->
<svg class="stroked" xmlns="http://www.w3.org/2000/svg" viewBox="0 0 44 44">
    <path d="M18 38H3c-1.1 0-2-.9-2-2V10c0-1.1.9-2 2-2h15c1.1 0 2 .9 2 2v26c0 1.1-.9 2-2 2z" class="line" fill="none" stroke="#000" stroke-width="2" stroke-miterlimit="10"/>
    <circle cx="10.5" cy="15.5" r="2.5" class="line" fill="none" stroke="#000" stroke-width="2" stroke-miterlimit="10"/>
    <circle cx="10.5" cy="27.5" r="5.5" class="line" fill="none" stroke="#000" stroke-width="2" stroke-miterlimit="10"/>
    <circle cx="10.5" cy="27.5" r=".5" class="line" fill="none" stroke="#000" stroke-width="2" stroke-miterlimit="10"/>
    <circle cx="33.5" cy="27.5" r=".5" class="line" fill="none" stroke="#000" stroke-width="2" stroke-miterlimit="10"/>
    <path d="M41 38H26c-1.1 0-2-.9-2-2V10c0-1.1.9-2 2-2h15c1.1 0 2 .9 2 2v26c0 1.1-.9 2-2 2z" class="line" fill="none" stroke="#000" stroke-width="2" stroke-miterlimit="10"/>
    <circle cx="33.5" cy="15.5" r="2.5" class="line" fill="none" stroke="#000" stroke-width="2" stroke-miterlimit="10"/>
    <circle cx="33.5" cy="27.5" r="5.5" class="line" fill="none" stroke="#000" stroke-width="2" stroke-miterlimit="10"/>
</svg>