<?xml version="1.0" encoding="utf-8"?>
<!-- Generated by Glyphs Company app at https://glyphs.co -->
<!-- Copyright Glyphs Company. Please follow included license terms. -->
<!-- Do NOT redistribute -->
<svg class="stroked" xmlns="http://www.w3.org/2000/svg" viewBox="0 0 44 44">
    <path d="M41 18H3c-.6 0-1-.4-1-1v-2C2 8.9 6.9 4 13 4h18c6 0 11 4.9 11 11v2c0 .6-.4 1-1 1zM39 37H5c-1.7 0-3-1.3-3-3v-2c0-.6.4-1 1-1h38c.5 0 1 .5 1 1v2c0 1.7-1.3 3-3 3zM1 27h42M1 22c3.5 0 3.5 2 7 2s3.5-2 7-2 3.5 2 7 2 3.5-2 7-2 3.5 2 7 2 3.5-2 7-2" class="line" fill="none" stroke="#000" stroke-width="2" stroke-linecap="round" stroke-miterlimit="10"/>
</svg>