<?xml version="1.0" encoding="utf-8"?>
<!-- Generated by Glyphs Company app at https://glyphs.co -->
<!-- Copyright Glyphs Company. Please follow included license terms. -->
<!-- Do NOT redistribute -->
<svg class="stroked" xmlns="http://www.w3.org/2000/svg" viewBox="0 0 43.62 34">
    <g class="line" fill="none" stroke="#000" stroke-width="2" stroke-miterlimit="10">
        <path d="M22.81 3c0-1.105-.895-2-2-2h-16c-1.105 0-2 .895-2 2v8h38V7c0-1.105-.895-2-2-2h-14c-1.104 0-2-.895-2-2zM1.008 13.18l1.636 18c.094 1.03.958 1.82 1.993 1.82h34.347c1.034 0 1.898-.79 1.992-1.82l1.636-18c.106-1.17-.816-2.18-1.992-2.18H3c-1.176 0-2.098 1.01-1.992 2.18z"/>
    </g>
</svg>