<?xml version="1.0" encoding="utf-8"?>
<!-- Generated by Glyphs Company app at https://glyphs.co -->
<!-- Copyright Glyphs Company. Please follow included license terms. -->
<!-- Do NOT redistribute -->
<svg class="stroked" xmlns="http://www.w3.org/2000/svg" viewBox="0 0 44 44">
    <path d="M24.7 15c0-2.8 2.7-3.9 2.7-8.3C27.3 3.6 24.9 1 22 1s-5.3 2.6-5.3 5.7c0 4.3 2.7 6.3 2.7 8.3 0 3.9-5.3 5.6-5.3 15.4 0 5.2 1.3 9.8 3.4 12.6h9.2c2.1-2.8 3.4-7.4 3.4-12.6-.1-9.8-5.4-11.2-5.4-15.4zM19.3 15h5.4M17.6 19h8.7M32.3 15h5.4M30.6 19h8.7M6.3 15h5.4M4.6 19h8.7" class="line" fill="none" stroke="#000" stroke-width="2" stroke-miterlimit="10"/>
    <path d="M15.5 22.7c-1.6-3.4-3.8-5-3.8-7.7 0-2.8 2.7-3.9 2.7-8.3C14.3 3.6 11.9 1 9 1S3.7 3.6 3.7 6.7C3.7 11 6.3 13 6.3 15c0 3.9-5.3 5.6-5.3 15.4 0 5.2 1.3 9.8 3.4 12.6h9.2c.7-1 1.4-2.2 1.9-3.7M28.5 39.3c.5 1.4 1.2 2.7 1.9 3.7h9.2c2.1-2.8 3.4-7.4 3.4-12.6 0-9.8-5.3-11.2-5.3-15.4 0-2.8 2.7-3.9 2.7-8.3C40.3 3.6 37.9 1 35 1s-5.3 2.6-5.3 5.7c0 4.3 2.7 6.3 2.7 8.3 0 2.6-2.3 4.2-3.8 7.7" class="line" fill="none" stroke="#000" stroke-width="2" stroke-miterlimit="10"/>
</svg>