<?xml version="1.0" encoding="utf-8"?>
<!-- Generated by Glyphs Company app at https://glyphs.co -->
<!-- Copyright Glyphs Company. Please follow included license terms. -->
<!-- Do NOT redistribute -->
<svg class="stroked" xmlns="http://www.w3.org/2000/svg" viewBox="0 0 44 44">
    <path d="M5 42.4l1.4-3s6.7-13.3 12.8-20C25.8 12 32.4 6.6 35 5.9" class="line" fill="none" stroke="#000" stroke-width="2" stroke-linecap="round" stroke-miterlimit="10"/>
    <path d="M39.9 1.4c-3.8-.7-9.7.6-17.5 6.2-1.9 1.4-4.1 3.7-6.3 6.2l-.7 4.4s-.4-1.5-.7-2.8c-1.3 1.6-2.6 3.2-3.7 4.7l-.6 4-.6-2.4c-1.3 1.9-2.3 3.6-2.8 4.6-1.2 2.9-.8 13.2-.8 13.2s7.9-2 10.6-4.5c1.7-1.5 3-3.2 5.3-6l-1.8-.3 3.2-1.3c4.8-5.6 10.4-11.6 12.3-13.8C40.2 8.8 45 2.4 39.9 1.4z" class="line" fill="none" stroke="#000" stroke-width="2" stroke-linejoin="round" stroke-miterlimit="10"/>
</svg>