<?xml version="1.0" encoding="utf-8"?>
<!-- Generated by Glyphs Company app at https://glyphs.co -->
<!-- Copyright Glyphs Company. Please follow included license terms. -->
<!-- Do NOT redistribute -->
<svg class="stroked" xmlns="http://www.w3.org/2000/svg" viewBox="0 0 44 44">
    <circle cx="22" cy="22" r="21" class="line" fill="none" stroke="#000" stroke-width="2" stroke-miterlimit="10"/>
    <path d="M22.9 18.3l6-11.2c.3-.5 0-1.2-.5-1.4-2-.8-4.1-1.2-6.3-1.2s-4.4.4-6.3 1.2c-.6.2-.8.9-.5 1.4l6 11.2c.2.7 1.2.7 1.6 0zM19.3 19.4L12.5 8.6c-.3-.5-1-.6-1.5-.2-1.6 1.3-3 2.9-4.2 4.8s-1.8 4-2.1 6.1c-.1.6.3 1.2 1 1.2l12.7.4c.8.1 1.3-.8.9-1.5zM18.4 23.1l-12.7.4c-.6 0-1 .6-1 1.2.3 2.1 1 4.1 2.1 6.1s2.6 3.6 4.2 4.9c.5.4 1.2.3 1.5-.2l6.7-10.8c.5-.8 0-1.7-.8-1.6zM21.1 25.7l-6 11.2c-.3.5 0 1.2.5 1.4 2 .8 4.1 1.2 6.3 1.2s4.4-.4 6.3-1.2c.6-.2.8-.9.5-1.4l-6-11.2c-.2-.7-1.2-.7-1.6 0zM24.7 24.6l6.7 10.8c.3.5 1 .6 1.5.2 1.6-1.3 3.1-2.9 4.2-4.9s1.8-4 2.1-6.1c.1-.6-.3-1.2-1-1.2L25.5 23c-.7 0-1.2.9-.8 1.6zM25.6 20.9l12.7-.4c.6 0 1-.6 1-1.2-.3-2.1-1-4.1-2.1-6.1S34.6 9.7 33 8.4c-.5-.4-1.2-.3-1.5.2l-6.7 10.8c-.5.7 0 1.6.8 1.5z" class="line thin" fill="none" stroke="#000" stroke-miterlimit="10"/>
</svg>