<?xml version="1.0" encoding="utf-8"?>
<!-- Generated by Glyphs Company app at https://glyphs.co -->
<!-- Copyright Glyphs Company. Please follow included license terms. -->
<!-- Do NOT redistribute -->
<svg class="stroked" xmlns="http://www.w3.org/2000/svg" viewBox="0 0 44 44">
    <path d="M39 19V8c0-1.1-.9-2-2-2H3c-1.1 0-2 .9-2 2v22c0 1.1.9 2 2 2h30M27 32l1.3 4.5c.4 1.3-.6 2.5-1.9 2.5h-8.7c-1.3 0-2.3-1.3-1.9-2.5L17 32M1 27h32" class="line" fill="none" stroke="#000" stroke-width="2" stroke-miterlimit="10"/>
    <g class="line" fill="none" stroke="#000" stroke-width="2" stroke-miterlimit="10">
        <path d="M42 39h-8c-.6 0-1-.4-1-1V20c0-.6.4-1 1-1h8c.6 0 1 .4 1 1v18c0 .6-.4 1-1 1zM33 23h10M33 35h10"/>
    </g>
</svg>