<?xml version="1.0" encoding="utf-8"?>
<!-- Generated by Glyphs Company app at https://glyphs.co -->
<!-- Copyright Glyphs Company. Please follow included license terms. -->
<!-- Do NOT redistribute -->
<svg class="stroked" xmlns="http://www.w3.org/2000/svg" viewBox="0 0 44 44">
    <path d="M2.8 41.2c-2.4-2.4-2.4-6.4 0-8.8l.1-.1C13.2 23 23 13.2 32.3 2.9l.1-.1c2.4-2.4 6.4-2.4 8.8 0 2.4 2.4 2.4 6.4 0 8.8l-.1.1C30.8 21 21 30.8 11.7 41.1l-.1.1c-2.4 2.4-6.3 2.4-8.8 0z" class="line" fill="none" stroke="#000" stroke-width="2" stroke-miterlimit="10"/>
    <path d="M28.7 16.9l-1.6-1.6c-.8-.8-.8-2.1 0-2.8l.1-.1c.8-.8 2.1-.8 2.8 0l1.6 1.6c.8.8.8 2.1 0 2.8l-.1.1c-.8.8-2 .8-2.8 0zM14 31.6L12.4 30c-.8-.8-.8-2.1 0-2.8l.1-.1c.8-.8 2.1-.8 2.8 0l1.6 1.6c.8.8.8 2.1 0 2.8l-.1.1c-.8.8-2.1.8-2.8 0z" class="line" fill="none" stroke="#000" stroke-width="2" stroke-miterlimit="10"/>
</svg>