<?xml version="1.0" encoding="utf-8"?>
<!-- Generated by Glyphs Company app at https://glyphs.co -->
<!-- Copyright Glyphs Company. Please follow included license terms. -->
<!-- Do NOT redistribute -->
<svg class="stroked" xmlns="http://www.w3.org/2000/svg" viewBox="0 0 44 44">
    <path d="M1 15.9v10c3.3 1.2 5.5 2.8 11.5 2.8 9.5 0 9.5-4 19-4 6 0 8.2 1.6 11.5 2.8v-10c-3.3-1.2-5.4-2.8-11.5-2.8-9.5 0-9.5 4-19 4-6 .1-8.2-1.6-11.5-2.8z" class="line" fill="none" stroke="#000" stroke-width="2" stroke-linecap="round" stroke-miterlimit="10"/>
    <g class="line" fill="none" stroke="#000" stroke-width="2" stroke-miterlimit="10">
        <path d="M6 17.9v4.9M10 18.5v5.1M14 18.8v5M18 18.1v5M22 16.7v5.1M26 15.3v5M30 14.8v5M34 14.9v5M38 15.6v5.1"/>
    </g>
</svg>