<?xml version="1.0" encoding="utf-8"?>
<!-- Generated by Glyphs Company app at https://glyphs.co -->
<!-- Copyright Glyphs Company. Please follow included license terms. -->
<!-- Do NOT redistribute -->
<svg class="stroked" xmlns="http://www.w3.org/2000/svg" viewBox="0 0 44 44">
    <path d="M21.3 1h.1c1.1 0 7.2.1 10.4 2 4.1 2.4 5.8 6.2 4.7 10.9-.7 3-3.2 6.4-4.3 7.7 2 2.3 3.2 5.2 3.2 8.3 0 7.2-2.2 13.1-14 13.1-11.4 0-14-5.9-14-13.1 0-3.2 1.2-6.1 3.2-8.3-1.1-1.3-3.6-4.7-4.3-7.7C5.2 9.2 6.9 5.3 11 3c3.2-1.9 8.9-2 10.3-2m-6.6 17.3c2-1 4.3-1.6 6.7-1.6 2.4 0 4.7.6 6.7 1.6 1.2-1.5 2.9-4 3.3-5.7.6-2.4-.1-3.9-2.2-5.1-1.5-.9-5.4-1.2-7.7-1.2h-.1c-2.4 0-6.3.4-7.8 1.2-2.1 1.2-2.7 2.8-2.2 5.1.4 1.7 2.2 4.3 3.3 5.7z" class="line" fill="none" stroke="#000" stroke-width="2" stroke-miterlimit="10"/>
    <path d="M21.4 23.5c-4.4 0-8 3.4-8 7.5 0 3.7 1 7.5 8 7.5 6.7 0 8-3 8-7.5 0-4.1-3.6-7.5-8-7.5z" class="line" fill="none" stroke="#000" stroke-miterlimit="10"/>
</svg>