<?xml version="1.0" encoding="utf-8"?>
<!-- Generated by Glyphs Company app at https://glyphs.co -->
<!-- Copyright Glyphs Company. Please follow included license terms. -->
<!-- Do NOT redistribute -->
<svg class="stroked" xmlns="http://www.w3.org/2000/svg" viewBox="0 0 44 44">
    <path d="M33.4 10c3.5 3.5 3.5 9.3 0 12.9-.4.4-.8.7-1.2 1L4.1 42.7c-.8.5-1.8.5-2.5-.2s-.7-1.7-.2-2.5l18.3-28.7c.3-.4.6-.9 1-1.2 3.4-3.6 9.1-3.6 12.7-.1z" class="line" fill="none" stroke="#000" stroke-width="2" stroke-miterlimit="10"/>
    <path class="line" fill="none" stroke="#000" stroke-width="2" stroke-linecap="round" stroke-miterlimit="10" d="M17.2 15l4.1 4M20.3 31.8l-4.1-4M5.7 33.1l2.5 2.4M33.4 10L40 3.4M33.4 10l2.4-9M33.4 10l9-2.4"/>
</svg>