<?xml version="1.0" encoding="utf-8"?>
<!-- Generated by Glyphs Company app at https://glyphs.co -->
<!-- Copyright Glyphs Company. Please follow included license terms. -->
<!-- Do NOT redistribute -->
<svg class="stroked" xmlns="http://www.w3.org/2000/svg" viewBox="0 0 44 44">
    <circle cx="16" cy="28" r="15" class="line" fill="none" stroke="#000" stroke-width="2" stroke-miterlimit="10"/>
    <circle cx="22.8" cy="34.1" r="1.8" class="line thin" fill="none" stroke="#000" stroke-miterlimit="10"/>
    <circle cx="20.6" cy="26.9" r="1.8" class="line thin" fill="none" stroke="#000" stroke-miterlimit="10"/>
    <circle cx="15.6" cy="31.9" r="1.8" class="line thin" fill="none" stroke="#000" stroke-miterlimit="10"/>
    <path class="line" fill="none" stroke="#000" stroke-width="2" stroke-miterlimit="10" d="M32.3 15h5.4M30.6 19h8.7M27.8 37.2c.6 2.3 1.5 4.3 2.6 5.8h9.2c2.1-2.8 3.4-7.4 3.4-12.6 0-9.8-5.3-11.2-5.3-15.4 0-2.8 2.7-3.9 2.7-8.3C40.3 3.6 37.9 1 35 1s-5.3 2.6-5.3 5.7c0 4.3 2.7 6.3 2.7 8.3 0 2.1-1.6 3.6-3 6.1"/>
</svg>