<?xml version="1.0" encoding="utf-8"?>
<!-- Generated by Glyphs Company app at https://glyphs.co -->
<!-- Copyright Glyphs Company. Please follow included license terms. -->
<!-- Do NOT redistribute -->
<svg class="stroked" xmlns="http://www.w3.org/2000/svg" viewBox="0 0 44 44">
    <path d="M6.5 32C5.1 32 4 30.9 4 29.5v-9C4 19.1 5.1 18 6.5 18S9 19.1 9 20.5v9C9 30.9 7.9 32 6.5 32z" class="line" fill="none" stroke="#000" stroke-width="2" stroke-miterlimit="10"/>
    <path d="M38 18.1V17c0-8.8-7.2-16-16-16S6 8.2 6 17v1.1" class="line" fill="none" stroke="#000" stroke-width="2" stroke-miterlimit="10"/>
    <path d="M37.5 32c-1.4 0-2.5-1.1-2.5-2.5v-9c0-1.4 1.1-2.5 2.5-2.5s2.5 1.1 2.5 2.5v9c0 1.4-1.1 2.5-2.5 2.5zM26.5 41.1c5.7-1.2 10.1-4.8 11.2-9.2M19.5 41c0-1.1.9-2 2-2h3c1.1 0 2 .9 2 2s-.9 2-2 2h-3c-1.1 0-2-.9-2-2z" class="line" fill="none" stroke="#000" stroke-width="2" stroke-miterlimit="10"/>
</svg>