<?xml version="1.0" encoding="utf-8"?>
<!-- Generated by Glyphs Company app at https://glyphs.co -->
<!-- Copyright Glyphs Company. Please follow included license terms. -->
<!-- Do NOT redistribute -->
<svg class="stroked" xmlns="http://www.w3.org/2000/svg" viewBox="0 0 44 44">
    <path d="M36 43H8c-1.1 0-2-.9-2-2V16c0-1.1.9-2 2-2h28c1.1 0 2 .9 2 2v25c0 1.1-.9 2-2 2zM36 11H8c-1.1 0-2-.9-2-2V3c0-1.1.9-2 2-2h28c1.1 0 2 .9 2 2v6c0 1.1-.9 2-2 2zM8 11h28v3H8z" class="line" fill="none" stroke="#000" stroke-width="2" stroke-miterlimit="10"/>
    <g class="line" fill="none" stroke="#000" stroke-width="2" stroke-miterlimit="10">
        <path d="M10 1v10M14 1v10M18 1v10M22 1v10M26 1v10M30 1v10M34 1v10"/>
    </g>
    <path class="line" fill="none" stroke="#000" stroke-width="2" stroke-miterlimit="10" d="M22 21v16M30 29H14"/>
</svg>