<?xml version="1.0" encoding="utf-8"?>
<!-- Generated by Glyphs Company app at https://glyphs.co -->
<!-- Copyright Glyphs Company. Please follow included license terms. -->
<!-- Do NOT redistribute -->
<svg class="stroked" xmlns="http://www.w3.org/2000/svg" viewBox="0 0 44 44">
    <path d="M20.4 1c7.2-.4 11.7 4.1 13.1 8.8 1.4 4.7-.1 13.1-2 18.9-1 3-4.2 14.3-10.1 14.3-5.9 0-8-3.2-8.2-6.2s-.2-5.7-2.2-7.7-4.6-2.2-7.1-5.6c-1.4-1.8-2.3-6.8-1.1-9.9C4.4 9.2 10.9 1.6 20.4 1z" class="line" fill="none" stroke="#000" stroke-width="2" stroke-miterlimit="10"/>
    <path d="M21.4 40c-5 0-5.2-2.6-5.3-3.5 0-.5-.1-.9-.1-1.4-.2-2.7-.4-5.8-3-8.2-1-1-2.1-1.6-3.1-2.2-1.3-.8-2.5-1.4-3.7-3-.7-1-1.5-4.8-.7-7C6.7 11.5 12.2 4.5 20.6 4h.7c5.5 0 8.4 3.6 9.3 6.7 1.1 3.9-.2 11.7-1.9 17.1l-.2.7c-3.3 10-5.9 11.5-7.1 11.5z" class="line thin" fill="none" stroke="#000" stroke-miterlimit="10"/>
    <path class="line" fill="none" stroke="#000" stroke-width="2" stroke-linecap="round" stroke-miterlimit="10" d="M12.5 20.5l12.6-7.2M16.8 23.8l10-5.7M18.2 29l7.3-4.2M10.9 15.7l9.8-5.6"/>
</svg>