<?xml version="1.0" encoding="utf-8"?>
<!-- Generated by Glyphs Company app at https://glyphs.co -->
<!-- Copyright Glyphs Company. Please follow included license terms. -->
<!-- Do NOT redistribute -->
<svg class="stroked" xmlns="http://www.w3.org/2000/svg" viewBox="0 0 44 44">
    <g class="line" fill="none" stroke="#000" stroke-width="2" stroke-miterlimit="10">
        <path d="M41.803 18.1l-3.013-1.003c-.36-1.23-.84-2.408-1.447-3.51l1.416-2.833c.335-.674.203-1.487-.33-2.02l-3.166-3.166c-.533-.533-1.346-.665-2.02-.328l-2.832 1.416c-1.102-.606-2.28-1.088-3.51-1.447l-1.005-3.015C25.66 1.482 24.992 1 24.237 1h-4.475c-.753 0-1.422.482-1.66 1.197L17.098 5.21c-1.23.36-2.408.84-3.51 1.447L10.753 5.24c-.674-.337-1.487-.205-2.02.328L5.568 8.734c-.533.533-.665 1.346-.328 2.02l1.416 2.832c-.606 1.102-1.088 2.28-1.447 3.51L2.194 18.1C1.482 18.34 1 19.01 1 19.76v4.478c0 .753.482 1.422 1.197 1.66l3.013 1.004c.36 1.23.84 2.408 1.447 3.51L5.24 33.247c-.337.674-.205 1.487.328 2.02l3.166 3.166c.533.533 1.346.665 2.02.328l2.832-1.415c1.102.606 2.28 1.088 3.51 1.447l1.005 3.014c.24.714.91 1.196 1.66 1.196h4.48c.752 0 1.42-.482 1.66-1.197l1.003-3.013c1.23-.36 2.408-.84 3.51-1.447l2.833 1.416c.674.337 1.487.205 2.02-.33l3.166-3.164c.534-.533.666-1.346.33-2.02l-1.417-2.832c.606-1.102 1.088-2.28 1.447-3.51l3.013-1.005c.715-.238 1.197-.907 1.197-1.66v-4.477c0-.754-.482-1.423-1.197-1.66z"/>
        <circle cx="22" cy="22" r="11"/>
    </g>
</svg>