<?xml version="1.0" encoding="utf-8"?>
<!-- Generated by Glyphs Company app at https://glyphs.co -->
<!-- Copyright Glyphs Company. Please follow included license terms. -->
<!-- Do NOT redistribute -->
<svg class="stroked" xmlns="http://www.w3.org/2000/svg" viewBox="0 0 44 15.506">
    <path d="M24.955 2.816c-1.185.525-2.565.765-2.925.81L22 3.61l-.03.016c-.345-.03-1.74-.27-2.925-.81-1.26-.57-1.62-.885-7.02-1.605-5.4-.733-10.847.69-10.847.69s-.63 1.907.48 2.867 1.785 3.375 2.145 4.59c.36 1.23.93 3.69 5.235 4.71 4.38 1.035 7.23.12 8.34-1.5 1.14-1.635 2.506-6.226 2.266-6.886-.21-.584 1.935-.48 2.325-.464l.03.016.03-.014c.39-.015 2.534-.12 2.324.465-.24.66 1.125 5.25 2.265 6.887 1.11 1.62 3.96 2.535 8.34 1.5 4.305-1.02 4.875-3.48 5.235-4.71.36-1.215 1.035-3.63 2.145-4.59s.48-2.865.48-2.865-5.444-1.425-10.845-.69c-5.4.72-5.76 1.034-7.02 1.604z" clip-rule="evenodd" class="line" fill="none" stroke="#000" stroke-width="2" stroke-linejoin="round" stroke-miterlimit="10"/>
</svg>