<?xml version="1.0" encoding="utf-8"?>
<!-- Generated by Glyphs Company app at https://glyphs.co -->
<!-- Copyright Glyphs Company. Please follow included license terms. -->
<!-- Do NOT redistribute -->
<svg class="stroked" xmlns="http://www.w3.org/2000/svg" viewBox="0 0 44 44">
    <path d="M4.4 37.2c-.2.6-.4 1.2-.4 1.8 0 2.2 1.8 4 4 4s4-1.8 4-4c0-.3-.1-.7-.1-1M13.1 38c-.1.3-.1.7-.1 1 0 2.2 1.8 4 4 4s4-1.8 4-4c0-.3-.1-.7-.1-1M22.1 38c-.1.3-.1.7-.1 1 0 2.2 1.8 4 4 4s4-1.8 4-4c0-.3-.1-.7-.1-1M31.1 38c-.1.3-.1.7-.1 1 0 2.2 1.8 4 4 4s4-1.8 4-4c0-.6-.2-1.2-.4-1.8" class="line" fill="none" stroke="#000" stroke-width="2" stroke-miterlimit="10"/>
    <path class="line" fill="none" stroke="#000" stroke-width="2" stroke-linecap="round" stroke-miterlimit="10" d="M16.1 11h5.8M16.9 17.9l5.6-2.1M21.3 23.2l4.5-3.5"/>
    <path d="M4 33.8V36c0 1.1.9 2 2 2h31c1.1 0 2-.9 2-2v-1.4" class="line" fill="none" stroke="#000" stroke-width="2" stroke-miterlimit="10"/>
    <path d="M4.3 22.5s.4-9.5.5-12 3.1-5.8 6.5-5.8c0 0 2.4-3.7 6.4-3.7S22 3.4 22 3.4s-.6 10.4.8 13 6 5.7 9.4 6.4c5.6 1.2 9.2 3 9.2 7.2s-2.3 5-5 5H6.7s-4.3-.3-3.5-4.6.9-5 1.1-7.9z" class="line" fill="none" stroke="#000" stroke-width="2" stroke-miterlimit="10"/>
</svg>