<?xml version="1.0" encoding="utf-8"?>
<!-- Generated by Glyphs Company app at https://glyphs.co -->
<!-- Copyright Glyphs Company. Please follow included license terms. -->
<!-- Do NOT redistribute -->
<svg class="stroked" xmlns="http://www.w3.org/2000/svg" viewBox="0 0 44 44">
    <path d="M8.5 35C7.1 35 6 33.9 6 32.5v-21C6 10.1 7.1 9 8.5 9s2.5 1.1 2.5 2.5v21c0 1.4-1.1 2.5-2.5 2.5zM3.5 31C2.1 31 1 29.9 1 28.5v-13C1 14.1 2.1 13 3.5 13S6 14.1 6 15.5v13C6 29.9 4.9 31 3.5 31zM35.5 35c-1.4 0-2.5-1.1-2.5-2.5v-21c0-1.4 1.1-2.5 2.5-2.5s2.5 1.1 2.5 2.5v21c0 1.4-1.1 2.5-2.5 2.5zM40.5 31c-1.4 0-2.5-1.1-2.5-2.5v-13c0-1.4 1.1-2.5 2.5-2.5s2.5 1.1 2.5 2.5v13c0 1.4-1.1 2.5-2.5 2.5zM11 20h22v4H11z" class="line" fill="none" stroke="#000" stroke-width="2" stroke-miterlimit="10"/>
</svg>