<?xml version="1.0" encoding="utf-8"?>
<!-- Generated by Glyphs Company app at https://glyphs.co -->
<!-- Copyright Glyphs Company. Please follow included license terms. -->
<!-- Do NOT redistribute -->
<svg class="stroked" xmlns="http://www.w3.org/2000/svg" viewBox="0 0 42 44">
    <g class="line" fill="none" stroke="#000" stroke-width="2" stroke-miterlimit="10">
        <path d="M39 43H3c-1.1 0-2-.9-2-2V3c0-1.1.9-2 2-2h36c1.1 0 2 .9 2 2v38c0 1.1-.9 2-2 2zM9 1v42M33 1v42M33 22H9" stroke-linejoin="round"/>
        <path d="M3 8h2.993V5M3 14h2.993v-3M3 20h2.993v-3M3 26h2.993v-3M3 32h2.993v-3M3 38h2.993v-3M35 8h2.993V5M35 14h2.993v-3M35 20h2.993v-3M35 26h2.993v-3M35 32h2.993v-3M35 38h2.993v-3"/>
    </g>
</svg>