<?xml version="1.0" encoding="utf-8"?>
<!-- Generated by Glyphs Company app at https://glyphs.co -->
<!-- Copyright Glyphs Company. Please follow included license terms. -->
<!-- Do NOT redistribute -->
<svg class="stroked" xmlns="http://www.w3.org/2000/svg" viewBox="0 0 44 44">
    <path class="line" fill="none" stroke="#000" stroke-width="2" stroke-linejoin="round" stroke-miterlimit="10" d="M1 10h42v18H1zM4 28h36v5H4z"/>
    <path class="line" fill="none" stroke="#000" stroke-width="2" stroke-linejoin="round" stroke-miterlimit="10" d="M5 14h6v10H5zM14 14h6v10h-6zM24 14h6v10h-6zM33 14h6v10h-6zM8 30v3M11 30v3M14 30v3M17 30v3M20 30v3M23 30v3M26 30v3M30 30v3M33 30v3M36 30v3"/>
</svg>