<?xml version="1.0" encoding="utf-8"?>
<!-- Generated by Glyphs Company app at https://glyphs.co -->
<!-- Copyright Glyphs Company. Please follow included license terms. -->
<!-- Do NOT redistribute -->
<svg class="stroked" xmlns="http://www.w3.org/2000/svg" viewBox="0 0 44 44">
    <g class="line" fill="none" stroke="#000" stroke-miterlimit="10">
        <ellipse cx="35.5" cy="33.6" rx="7.5" ry="7.4" stroke-width="1.867"/>
        <path d="M39 33.6h-7"/>
    </g>
    <path d="M27.9 32.1c-1.3-.6-3-1.3-4.6-2-1.4-.5-3.1-1.4-3.1-1.4-.2-.1 0-1.2 0-1.2l-1.2-.1c0-.1-.1-1.4-.1-1.4 1.2-.5 1.1-3 1.1-3 .8.4 1.3-1.5 1.3-1.5.9-2.8-.5-2.6-.5-2.6.4-2.1 0-5.1 0-5.1-.6-5.6-10.3-3.8-8.8-2.1-3.4-1-2.2 5.7-2.2 5.7l.6 1.6c-1.2.8-.4 1.7-.3 2.8.1 1.6 1 1.3 1 1.3.1 2.6 1.3 3 1.3 3 .2 1.6 0 1.5 0 1.5h-1c.1.4-.1 1.1-.1 1.1-1.3.6-1.6 1-2.9 1.5-1.5.7-3.7 1.6-5.3 2.3C1.8 33 1 34.2 1 35.6v1.2c0 .8.6 1.5 1.5 1.5h26.1c.4 0 .7-.1.9-.3" class="line" fill="none" stroke="#000" stroke-width="2" stroke-linejoin="round" stroke-miterlimit="10"/>
    <path d="M35.7 26.1c-1-.5-2.2-.9-3.3-1.4-1.4-.5-3.1-1.4-3.1-1.4-.2-.1 0-1.2 0-1.2l-1.3-.2c0-.1-.1-1.4-.1-1.4 1.3-.4 1.1-2.9 1.1-2.9.8.4 1.3-1.5 1.3-1.5.9-2.8-.5-2.6-.5-2.6.4-2.1 0-5.1 0-5.1-.6-5.6-10.3-3.8-8.8-2.1-2.5-.7-2.5 2.5-2.4 4.4" class="line" fill="none" stroke="#000" stroke-width="2" stroke-linejoin="round" stroke-miterlimit="10"/>
</svg>