<?xml version="1.0" encoding="utf-8"?>
<!-- Generated by Glyphs Company app at https://glyphs.co -->
<!-- Copyright Glyphs Company. Please follow included license terms. -->
<!-- Do NOT redistribute -->
<svg class="stroked" xmlns="http://www.w3.org/2000/svg" viewBox="0 0 44 44">
    <g class="line" fill="none" stroke="#000" stroke-miterlimit="10">
        <ellipse cx="35.5" cy="31.4" rx="7.5" ry="7.4" stroke-width="1.867"/>
        <path d="M31.9 31.2l2.4 2.4 5.3-5.3"/>
    </g>
    <path d="M37 24.1V8.2C37 5.9 28.9 4 19 4S1 5.9 1 8.3v27.4C1 38.1 9.1 40 19 40c5.6 0 10.6-.6 13.9-1.6" class="line" fill="none" stroke="#000" stroke-width="2" stroke-miterlimit="10"/>
    <path d="M37 8.3c0 2.4-8.1 4.3-18 4.3S1 10.7 1 8.3M37 17.7c0 2.4-8.1 4.3-18 4.3S1 20.1 1 17.7M1 26.3c0 2.4 8.1 4.3 18 4.3 3.3 0 6.5-.2 9.1-.6" class="line" fill="none" stroke="#000" stroke-width="2" stroke-miterlimit="10"/>
</svg>