<?xml version="1.0" encoding="utf-8"?>
<!-- Generated by Glyphs Company app at https://glyphs.co -->
<!-- Copyright Glyphs Company. Please follow included license terms. -->
<!-- Do NOT redistribute -->
<svg class="stroked" xmlns="http://www.w3.org/2000/svg" viewBox="0 0 41.681 41.585">
    <path d="M22.652 2.15l4.53 9.666c.282.604.848 1.027 1.507 1.128l10.29 1.575c1.61.244 2.265 2.205 1.13 3.37l-7.576 7.78c-.442.453-.643 1.09-.54 1.716l1.77 10.87c.267 1.65-1.483 2.88-2.944 2.072l-9.012-4.99c-.603-.335-1.335-.335-1.938 0l-9.013 4.99c-1.46.808-3.21-.424-2.943-2.072l1.77-10.87c.102-.627-.1-1.264-.54-1.718L1.567 17.89c-1.135-1.165-.478-3.126 1.13-3.373L12.99 12.94c.66-.1 1.223-.523 1.506-1.127l4.53-9.665c.722-1.534 2.905-1.534 3.625 0z" clip-rule="evenodd" class="line" fill="none" stroke="#000" stroke-width="2" stroke-miterlimit="10"/>
</svg>