<?xml version="1.0" encoding="utf-8"?>
<!-- Generated by Glyphs Company app at https://glyphs.co -->
<!-- Copyright Glyphs Company. Please follow included license terms. -->
<!-- Do NOT redistribute -->
<svg class="stroked" xmlns="http://www.w3.org/2000/svg" viewBox="0 0 44 44">
    <g class="line" fill="none" stroke="#000" stroke-width="2" stroke-miterlimit="10">
        <path d="M30.546 18.754l-1.772-1.502c.09-.918.076-1.85-.036-2.785l1.743-1.546c.415-.365.548-.955.33-1.463l-1.29-3.02c-.218-.508-.736-.82-1.287-.775l-2.322.192c-.596-.727-1.26-1.382-1.987-1.95l.14-2.32c.032-.552-.292-1.062-.804-1.268L20.21 1.09c-.513-.205-1.1-.06-1.457.362L17.25 3.224c-.917-.09-1.85-.076-2.784.036L12.92 1.517c-.367-.413-.957-.546-1.465-.328l-3.02 1.29c-.508.216-.82.734-.775 1.285l.19 2.322c-.724.598-1.38 1.262-1.948 1.988l-2.32-.138c-.55-.033-1.06.29-1.267.803l-1.223 3.05c-.206.512-.06 1.1.36 1.456l1.773 1.502c-.09.918-.076 1.85.036 2.785L1.52 19.08c-.413.366-.546.956-.328 1.464l1.29 3.02c.218.508.736.82 1.287.775l2.32-.193c.597.727 1.26 1.382 1.988 1.95l-.14 2.32c-.032.552.292 1.062.804 1.268l3.05 1.223c.512.205 1.1.06 1.456-.362l1.502-1.772c.918.09 1.85.076 2.785-.036l1.546 1.743c.367.414.957.547 1.465.33l3.02-1.29c.508-.218.82-.736.775-1.287l-.192-2.322c.727-.596 1.382-1.26 1.95-1.987l2.32.14c.552.032 1.062-.292 1.268-.804l1.223-3.05c.202-.513.057-1.1-.365-1.457zM42.487 32.33l-1.29-.43c-.155-.53-.36-1.033-.62-1.506l.606-1.214c.144-.29.088-.637-.14-.866l-1.358-1.357c-.228-.228-.577-.285-.866-.14l-1.216.606c-.472-.26-.977-.466-1.505-.62l-.43-1.29c-.1-.306-.39-.513-.71-.513h-1.92c-.324 0-.61.207-.713.513l-.43 1.29c-.528.155-1.032.36-1.505.62l-1.214-.606c-.29-.144-.638-.088-.867.14l-1.356 1.358c-.228.228-.285.577-.14.866l.606 1.216c-.26.472-.466.977-.62 1.505l-1.29.43c-.305.1-.512.39-.512.71v1.92c0 .324.207.61.513.71l1.29.43c.156.53.36 1.034.62 1.507l-.605 1.214c-.144.29-.088.638.14.867l1.358 1.357c.228.228.577.285.866.14l1.214-.607c.472.26.977.466 1.505.62l.43 1.29c.1.307.387.514.71.514h1.92c.322 0 .61-.206.71-.512l.43-1.29c.53-.155 1.033-.36 1.506-.62l1.214.606c.29.144.638.088.867-.14l1.357-1.357c.228-.228.285-.577.14-.866l-.606-1.213c.26-.472.466-.977.62-1.505l1.29-.43c.305-.1.512-.388.512-.71v-1.92c0-.322-.207-.61-.513-.71z"/>
        <circle cx="16" cy="16" r="7"/>
        <circle cx="34" cy="34" r="3"/>
    </g>
</svg>