<?xml version="1.0" encoding="utf-8"?>
<!-- Generated by Glyphs Company app at https://glyphs.co -->
<!-- Copyright Glyphs Company. Please follow included license terms. -->
<!-- Do NOT redistribute -->
<svg class="stroked" xmlns="http://www.w3.org/2000/svg" viewBox="0 0 44 44">
    <path d="M9 29H2c-.5 0-1-.5-1-1V16c0-.6.5-1 1-1h7c.6 0 1 .4 1 1v12c0 .5-.4 1-1 1zM42 29h-7c-.5 0-1-.5-1-1V16c0-.6.5-1 1-1h7c.5 0 1 .4 1 1v12c0 .5-.5 1-1 1zM10 22h24M3.9 15v14M6.9 15v14M39.9 15v14M36.9 15v14" class="line" fill="none" stroke="#000" stroke-width="2" stroke-miterlimit="10"/>
</svg>