<?xml version="1.0" encoding="utf-8"?>
<!-- Generated by Glyphs Company app at https://glyphs.co -->
<!-- Copyright Glyphs Company. Please follow included license terms. -->
<!-- Do NOT redistribute -->
<svg class="stroked" xmlns="http://www.w3.org/2000/svg" viewBox="0 0 44 44">
    <path class="line" fill="none" stroke="#000" stroke-width="2" stroke-miterlimit="10" d="M33 27v3h-3M39 27v3h-3"/>
    <path d="M41 34H3c-1.1 0-2-.9-2-2v-6c0-1.1.9-2 2-2h38c1.1 0 2 .9 2 2v6c0 1.1-.9 2-2 2z" class="line" fill="none" stroke="#000" stroke-width="2" stroke-linejoin="round" stroke-miterlimit="10"/>
    <path class="line" fill="none" stroke="#000" stroke-width="2" stroke-miterlimit="10" d="M5 34h6v3H5zM33 34h6v3h-6z"/>
    <path class="line" fill="none" stroke="#000" stroke-width="2" stroke-linejoin="round" stroke-miterlimit="10" d="M14 24L7 13.3M30 24l7-10.7"/>
    <path d="M25.4 15c-.7-1.2-2-2-3.4-2s-2.7.8-3.4 1.9M29.4 10.3C27.6 8.3 24.9 7 22 7c-2.9 0-5.5 1.3-7.4 3.3" class="line" fill="none" stroke="#000" stroke-width="2" stroke-miterlimit="10"/>
</svg>