<?xml version="1.0" encoding="utf-8"?>
<!-- Generated by Glyphs Company app at https://glyphs.co -->
<!-- Copyright Glyphs Company. Please follow included license terms. -->
<!-- Do NOT redistribute -->
<svg class="stroked" xmlns="http://www.w3.org/2000/svg" viewBox="0 0 44 44">
    <path class="line" fill="none" stroke="#000" stroke-width="2" stroke-miterlimit="10" d="M24.4 15V1h-5v14M28.3 15.1l1.5-12.5-5-.6-.4 3.3V15M19.4 15V3.8L19.2 2l-5 .6 1.5 12.6"/>
    <path class="line" fill="none" stroke="#000" stroke-width="2" stroke-miterlimit="10" d="M32.6 15.4l-.3-11.2h-2.7l-1.3 10.9M34.9 15.6l2-8.6-4.5-1 .2 9.4M15.7 15.2l-1.3-11h-2.7l-.3 11.2"/>
    <path class="line" fill="none" stroke="#000" stroke-width="2" stroke-miterlimit="10" d="M11.4 15.4l.2-9.4-4.5 1 2 8.6"/>
    <path d="M33.1 43H10.9l-5-27s7.2-1 16-1c10.3 0 16.2 1 16.2 1l-5 27z" class="line" fill="none" stroke="#000" stroke-width="2" stroke-linejoin="round" stroke-miterlimit="10"/>
</svg>