<?xml version="1.0" encoding="utf-8"?>
<!-- Generated by Glyphs Company app at https://glyphs.co -->
<!-- Copyright Glyphs Company. Please follow included license terms. -->
<!-- Do NOT redistribute -->
<svg class="stroked" xmlns="http://www.w3.org/2000/svg" viewBox="0 0 44 44">
    <path class="line" fill="none" stroke="#000" stroke-width="2" stroke-linecap="round" stroke-miterlimit="10" d="M21.9 8.9l2 2M12 19.6l-2 2M31.3 12.3l-.3 2.8M16.1 10.5l.7 2.8M30.5 29.6L29 31.9M23.4 34.3l-2.2-1.6M12.5 29l2 2M33.7 22.4l1.1 2.6"/>
    <circle cx="22" cy="22" r="7" class="line" fill="none" stroke="#000" stroke-width="2" stroke-miterlimit="10"/>
    <path d="M22 1c-2.5 0-4.9.5-7.1 1.3 0 1.4-.8 2-.8 2s1.3 1.2.6 3.1C14.1 8.8 12 8.9 12 8.9s1.3 1.9-.2 3.6c-1.4 1.6-3.4 1-3.4 1s-.1 1.7-2.1 2.4c-1.8.7-3.3-.6-3.3-.6-.4.4-.8.7-1.2.8C1.3 18 1 20 1 22c0 11.6 9.4 21 21 21s21-9.4 21-21S33.6 1 22 1z" class="line" fill="none" stroke="#000" stroke-width="2" stroke-linejoin="round" stroke-miterlimit="10"/>
    <path d="M36.8 15.9c-.9-2.1-.5-5-2.1-6.6-1.6-1.6-4.5-1.2-6.6-2.1-2-.8-3.8-3.2-6.1-3.2s-4.1 2.4-6.1 3.2c-.4.2-.9.3-1.4.4-.7 1.2-2.5 1.3-2.5 1.3s1.3 1.9-.2 3.6c-1.4 1.6-3.4 1-3.4 1s-.1 1.1-1.1 1.9c-.1.2-.1.3-.2.5-.7 2-3.1 3.8-3.1 6.1s2.4 4.1 3.2 6.1c.9 2.1.5 5 2.1 6.6 1.6 1.6 4.5 1.2 6.6 2.1 2 .8 3.8 3.2 6.1 3.2s4.1-2.4 6.1-3.2c2.1-.9 5-.5 6.6-2.1 1.6-1.6 1.2-4.5 2.1-6.6.8-2 3.2-3.8 3.2-6.1s-2.4-4.1-3.2-6.1z" class="line" fill="none" stroke="#000" stroke-width="2" stroke-linejoin="round" stroke-miterlimit="10"/>
</svg>