<?xml version="1.0" encoding="utf-8"?>
<!-- Generated by Glyphs Company app at https://glyphs.co -->
<!-- Copyright Glyphs Company. Please follow included license terms. -->
<!-- Do NOT redistribute -->
<svg class="stroked" xmlns="http://www.w3.org/2000/svg" viewBox="0 0 44 36">
    <g class="line" fill="none" stroke="#000" stroke-width="2" stroke-miterlimit="10">
        <path d="M1 33V3c0-1.1.9-2 2-2h38c1.1 0 2 .9 2 2v30c0 1.1-.9 2-2 2H3c-1.1 0-2-.9-2-2zM43 27H1" stroke-linejoin="round"/>
        <path d="M25.653 15.832l-6.197 4.13c-.665.444-1.555-.032-1.555-.83v-8.264c0-.8.89-1.275 1.557-.832l6.197 4.13c.594.398.594 1.27 0 1.666z"/>
        <path stroke-linejoin="round" d="M5 31h34"/>
    </g>
</svg>